<mxfile host="65bd71144e">
    <diagram id="Hno4EH3RgTpdNEn8snZv" name="PÃ¡gina-1">
        <mxGraphModel dx="743" dy="553" grid="1" gridSize="10" guides="1" tooltips="1" connect="1" arrows="1" fold="1" page="1" pageScale="1" pageWidth="827" pageHeight="1169" math="0" shadow="0">
            <root>
                <mxCell id="0"/>
                <mxCell id="1" parent="0"/>
                <mxCell id="94" value="medicos" style="swimlane;fontStyle=0;childLayout=stackLayout;horizontal=1;startSize=30;horizontalStack=0;resizeParent=1;resizeParentMax=0;resizeLast=0;collapsible=1;marginBottom=0;whiteSpace=wrap;html=1;" vertex="1" parent="1">
                    <mxGeometry x="125" y="1305" width="140" height="390" as="geometry">
                        <mxRectangle x="70" y="190" width="90" height="30" as="alternateBounds"/>
                    </mxGeometry>
                </mxCell>
                <mxCell id="95" value="crm" style="text;strokeColor=none;fillColor=none;align=left;verticalAlign=middle;spacingLeft=4;spacingRight=4;overflow=hidden;points=[[0,0.5],[1,0.5]];portConstraint=eastwest;rotatable=0;whiteSpace=wrap;html=1;fontStyle=5" vertex="1" parent="94">
                    <mxGeometry y="30" width="140" height="30" as="geometry"/>
                </mxCell>
                <mxCell id="96" value="nome&lt;br&gt;" style="text;strokeColor=none;fillColor=none;align=left;verticalAlign=middle;spacingLeft=4;spacingRight=4;overflow=hidden;points=[[0,0.5],[1,0.5]];portConstraint=eastwest;rotatable=0;whiteSpace=wrap;html=1;" vertex="1" parent="94">
                    <mxGeometry y="60" width="140" height="30" as="geometry"/>
                </mxCell>
                <mxCell id="97" value="genero" style="text;strokeColor=none;fillColor=none;align=left;verticalAlign=middle;spacingLeft=4;spacingRight=4;overflow=hidden;points=[[0,0.5],[1,0.5]];portConstraint=eastwest;rotatable=0;whiteSpace=wrap;html=1;" vertex="1" parent="94">
                    <mxGeometry y="90" width="140" height="30" as="geometry"/>
                </mxCell>
                <mxCell id="98" value="telefone_fixo" style="text;strokeColor=none;fillColor=none;align=left;verticalAlign=middle;spacingLeft=4;spacingRight=4;overflow=hidden;points=[[0,0.5],[1,0.5]];portConstraint=eastwest;rotatable=0;whiteSpace=wrap;html=1;" vertex="1" parent="94">
                    <mxGeometry y="120" width="140" height="30" as="geometry"/>
                </mxCell>
                <mxCell id="99" value="telefone_movel" style="text;strokeColor=none;fillColor=none;align=left;verticalAlign=middle;spacingLeft=4;spacingRight=4;overflow=hidden;points=[[0,0.5],[1,0.5]];portConstraint=eastwest;rotatable=0;whiteSpace=wrap;html=1;" vertex="1" parent="94">
                    <mxGeometry y="150" width="140" height="30" as="geometry"/>
                </mxCell>
                <mxCell id="100" value="rua" style="text;strokeColor=none;fillColor=none;align=left;verticalAlign=middle;spacingLeft=4;spacingRight=4;overflow=hidden;points=[[0,0.5],[1,0.5]];portConstraint=eastwest;rotatable=0;whiteSpace=wrap;html=1;" vertex="1" parent="94">
                    <mxGeometry y="180" width="140" height="30" as="geometry"/>
                </mxCell>
                <mxCell id="101" value="numero" style="text;strokeColor=none;fillColor=none;align=left;verticalAlign=middle;spacingLeft=4;spacingRight=4;overflow=hidden;points=[[0,0.5],[1,0.5]];portConstraint=eastwest;rotatable=0;whiteSpace=wrap;html=1;" vertex="1" parent="94">
                    <mxGeometry y="210" width="140" height="30" as="geometry"/>
                </mxCell>
                <mxCell id="102" value="bairro" style="text;strokeColor=none;fillColor=none;align=left;verticalAlign=middle;spacingLeft=4;spacingRight=4;overflow=hidden;points=[[0,0.5],[1,0.5]];portConstraint=eastwest;rotatable=0;whiteSpace=wrap;html=1;" vertex="1" parent="94">
                    <mxGeometry y="240" width="140" height="30" as="geometry"/>
                </mxCell>
                <mxCell id="103" value="cep" style="text;strokeColor=none;fillColor=none;align=left;verticalAlign=middle;spacingLeft=4;spacingRight=4;overflow=hidden;points=[[0,0.5],[1,0.5]];portConstraint=eastwest;rotatable=0;whiteSpace=wrap;html=1;" vertex="1" parent="94">
                    <mxGeometry y="270" width="140" height="30" as="geometry"/>
                </mxCell>
                <mxCell id="104" value="cidade" style="text;strokeColor=none;fillColor=none;align=left;verticalAlign=middle;spacingLeft=4;spacingRight=4;overflow=hidden;points=[[0,0.5],[1,0.5]];portConstraint=eastwest;rotatable=0;whiteSpace=wrap;html=1;" vertex="1" parent="94">
                    <mxGeometry y="300" width="140" height="30" as="geometry"/>
                </mxCell>
                <mxCell id="105" value="estado" style="text;strokeColor=none;fillColor=none;align=left;verticalAlign=middle;spacingLeft=4;spacingRight=4;overflow=hidden;points=[[0,0.5],[1,0.5]];portConstraint=eastwest;rotatable=0;whiteSpace=wrap;html=1;" vertex="1" parent="94">
                    <mxGeometry y="330" width="140" height="30" as="geometry"/>
                </mxCell>
                <mxCell id="106" value="especialidade" style="text;strokeColor=none;fillColor=none;align=left;verticalAlign=middle;spacingLeft=4;spacingRight=4;overflow=hidden;points=[[0,0.5],[1,0.5]];portConstraint=eastwest;rotatable=0;whiteSpace=wrap;html=1;" vertex="1" parent="94">
                    <mxGeometry y="360" width="140" height="30" as="geometry"/>
                </mxCell>
                <mxCell id="107" value="paciente" style="swimlane;fontStyle=0;childLayout=stackLayout;horizontal=1;startSize=30;horizontalStack=0;resizeParent=1;resizeParentMax=0;resizeLast=0;collapsible=1;marginBottom=0;whiteSpace=wrap;html=1;" vertex="1" parent="1">
                    <mxGeometry x="558" y="1380" width="140" height="210" as="geometry"/>
                </mxCell>
                <mxCell id="108" value="cpf" style="text;strokeColor=none;fillColor=none;align=left;verticalAlign=middle;spacingLeft=4;spacingRight=4;overflow=hidden;points=[[0,0.5],[1,0.5]];portConstraint=eastwest;rotatable=0;whiteSpace=wrap;html=1;fontStyle=5" vertex="1" parent="107">
                    <mxGeometry y="30" width="140" height="30" as="geometry"/>
                </mxCell>
                <mxCell id="109" value="nome&lt;br&gt;" style="text;strokeColor=none;fillColor=none;align=left;verticalAlign=middle;spacingLeft=4;spacingRight=4;overflow=hidden;points=[[0,0.5],[1,0.5]];portConstraint=eastwest;rotatable=0;whiteSpace=wrap;html=1;" vertex="1" parent="107">
                    <mxGeometry y="60" width="140" height="30" as="geometry"/>
                </mxCell>
                <mxCell id="110" value="genero" style="text;strokeColor=none;fillColor=none;align=left;verticalAlign=middle;spacingLeft=4;spacingRight=4;overflow=hidden;points=[[0,0.5],[1,0.5]];portConstraint=eastwest;rotatable=0;whiteSpace=wrap;html=1;" vertex="1" parent="107">
                    <mxGeometry y="90" width="140" height="30" as="geometry"/>
                </mxCell>
                <mxCell id="111" value="telefone_fixo" style="text;strokeColor=none;fillColor=none;align=left;verticalAlign=middle;spacingLeft=4;spacingRight=4;overflow=hidden;points=[[0,0.5],[1,0.5]];portConstraint=eastwest;rotatable=0;whiteSpace=wrap;html=1;" vertex="1" parent="107">
                    <mxGeometry y="120" width="140" height="30" as="geometry"/>
                </mxCell>
                <mxCell id="112" value="telefone_movel" style="text;strokeColor=none;fillColor=none;align=left;verticalAlign=middle;spacingLeft=4;spacingRight=4;overflow=hidden;points=[[0,0.5],[1,0.5]];portConstraint=eastwest;rotatable=0;whiteSpace=wrap;html=1;" vertex="1" parent="107">
                    <mxGeometry y="150" width="140" height="30" as="geometry"/>
                </mxCell>
                <mxCell id="113" value="nascimento" style="text;strokeColor=none;fillColor=none;align=left;verticalAlign=middle;spacingLeft=4;spacingRight=4;overflow=hidden;points=[[0,0.5],[1,0.5]];portConstraint=eastwest;rotatable=0;whiteSpace=wrap;html=1;" vertex="1" parent="107">
                    <mxGeometry y="180" width="140" height="30" as="geometry"/>
                </mxCell>
                <mxCell id="114" value="consulta" style="swimlane;fontStyle=0;childLayout=stackLayout;horizontal=1;startSize=30;horizontalStack=0;resizeParent=1;resizeParentMax=0;resizeLast=0;collapsible=1;marginBottom=0;whiteSpace=wrap;html=1;" vertex="1" parent="1">
                    <mxGeometry x="340" y="1365" width="140" height="240" as="geometry">
                        <mxRectangle x="530" y="330" width="90" height="30" as="alternateBounds"/>
                    </mxGeometry>
                </mxCell>
                <mxCell id="115" value="consulta_id" style="text;strokeColor=none;fillColor=none;align=left;verticalAlign=middle;spacingLeft=4;spacingRight=4;overflow=hidden;points=[[0,0.5],[1,0.5]];portConstraint=eastwest;rotatable=0;whiteSpace=wrap;html=1;fontStyle=5" vertex="1" parent="114">
                    <mxGeometry y="30" width="140" height="30" as="geometry"/>
                </mxCell>
                <mxCell id="116" value="datahora" style="text;strokeColor=none;fillColor=none;align=left;verticalAlign=middle;spacingLeft=4;spacingRight=4;overflow=hidden;points=[[0,0.5],[1,0.5]];portConstraint=eastwest;rotatable=0;whiteSpace=wrap;html=1;" vertex="1" parent="114">
                    <mxGeometry y="60" width="140" height="30" as="geometry"/>
                </mxCell>
                <mxCell id="117" value="diagnostico" style="text;strokeColor=none;fillColor=none;align=left;verticalAlign=middle;spacingLeft=4;spacingRight=4;overflow=hidden;points=[[0,0.5],[1,0.5]];portConstraint=eastwest;rotatable=0;whiteSpace=wrap;html=1;" vertex="1" parent="114">
                    <mxGeometry y="90" width="140" height="30" as="geometry"/>
                </mxCell>
                <mxCell id="118" value="receita" style="text;strokeColor=none;fillColor=none;align=left;verticalAlign=middle;spacingLeft=4;spacingRight=4;overflow=hidden;points=[[0,0.5],[1,0.5]];portConstraint=eastwest;rotatable=0;whiteSpace=wrap;html=1;" vertex="1" parent="114">
                    <mxGeometry y="120" width="140" height="30" as="geometry"/>
                </mxCell>
                <mxCell id="119" value="notas" style="text;strokeColor=none;fillColor=none;align=left;verticalAlign=middle;spacingLeft=4;spacingRight=4;overflow=hidden;points=[[0,0.5],[1,0.5]];portConstraint=eastwest;rotatable=0;whiteSpace=wrap;html=1;" vertex="1" parent="114">
                    <mxGeometry y="150" width="140" height="30" as="geometry"/>
                </mxCell>
                <mxCell id="120" value="crm" style="text;strokeColor=none;fillColor=none;align=left;verticalAlign=middle;spacingLeft=4;spacingRight=4;overflow=hidden;points=[[0,0.5],[1,0.5]];portConstraint=eastwest;rotatable=0;whiteSpace=wrap;html=1;fontColor=#FF3333;fontStyle=1" vertex="1" parent="114">
                    <mxGeometry y="180" width="140" height="30" as="geometry"/>
                </mxCell>
                <mxCell id="121" value="cpf" style="text;strokeColor=none;fillColor=none;align=left;verticalAlign=middle;spacingLeft=4;spacingRight=4;overflow=hidden;points=[[0,0.5],[1,0.5]];portConstraint=eastwest;rotatable=0;whiteSpace=wrap;html=1;fontColor=#FF3333;fontStyle=1" vertex="1" parent="114">
                    <mxGeometry y="210" width="140" height="30" as="geometry"/>
                </mxCell>
                <mxCell id="122" style="edgeStyle=none;html=1;exitX=1;exitY=0.5;exitDx=0;exitDy=0;fontColor=#FF3333;entryX=-0.002;entryY=0;entryDx=0;entryDy=0;entryPerimeter=0;" edge="1" parent="1" target="118">
                    <mxGeometry relative="1" as="geometry">
                        <mxPoint x="333.8000000000002" y="1545" as="targetPoint"/>
                        <mxPoint x="265.0000000000001" y="1485.0000000000002" as="sourcePoint"/>
                    </mxGeometry>
                </mxCell>
                <mxCell id="123" value="1" style="text;html=1;strokeColor=none;fillColor=none;align=center;verticalAlign=middle;whiteSpace=wrap;rounded=0;fontColor=default;" vertex="1" parent="1">
                    <mxGeometry x="260" y="1460" width="34" height="30" as="geometry"/>
                </mxCell>
                <mxCell id="124" value="" style="shape=image;verticalLabelPosition=bottom;labelBackgroundColor=default;verticalAlign=top;aspect=fixed;imageAspect=0;image=data:image/png,iVBORw0KGgoAAAANSUhEUgAAAdAAAAG+CAIAAACswcJ9AAAgAElEQVR4Ae29X3AcVZbnX+8bG7EPuzzs2zTR+8LDxhJLLFHR9LA9Dxsxw+NsMxGzszERE1Gwv2GA7e6YaYfpQDP+NbDDTP+qY5se2ZYAGfPHcjeSLLtsEJLa2KahaRvb2AK7wLbcbSPJkmxkAy1bkL/OvHm/efJm1q2q/FN5s+6pIPDJ+/+ec+4nj27lraw4cZ+1tbW4ZD/NzNxLly6VbsxpNMnzpeZOo0kz67J9+9K+FToryGa6oH5U7KAwn+M4el2VMZfty/alGqByifyZgesarkQGg58xgKCKklpQ73Vs3760LwOXgUsd21xtMIConfSwLmOuJfZl4JqLGP2yscRBQRmeL1TBET1VRbm0wcBl4Crea+gGCwOX2kl/My5jriX2ZeAycOlCNlcblixIGIPnC1WUK4bFsGNvewxccxETazCYkxckVNFPCxKTYvtCFf1kXwaua1Y92szM5QXZlwsSk2L7QhUlXaGx3Kis9cvn0qVL/TKVjubB8+1ITaUtxPYtrel0A+cIlyNcGkmYqw2O+KidYqMnFChjriX2ZeCaixj9srHEQQERni9U0U9/YmNSltiXgcvAhc/7gh70ReVasiBhDJ4vVNFPNxgGrmvWoiCSpl9ekH25IDEpti9UUdIVGru6GbgMXOrY5mqDAUTtFLuYUaCMuZbYl4FrLmL0y8YSBwVEeL5QRT9FfJiUJfZl4DJw4fO+oAd9UbmWLEgYg+cLVfTTDYaB65q1KIik6ZcXZF8uSEyK7QtVlHSFxq5uBi4Dlzq2udpgAFE7xS5mFChjriX2Lfik2UcffTQ4OPjSK6Nj43sm+ZNUA2Pje158Zdfg4NaPP/5Yd8ylzHl88qrM1ms/dkvsW2SEOzKyY2x8YrQx+/zUse0zHwzOnhmcPcv/da+BM9tnPnh+6thoY/bV8YmRkR399CcYojZLIiCeLzRAhTLG7LFjLgy424eGxyb3DU+/3z1fGMotNTA8fXJsz76h4eFYY8ODy5jLwIX5+IZKVVEubRQD3JGRkVf37N3mRrUt2cFZyTSwbWbOZe7QkOKU9JKBa742+AZjvo0SrKMCgLuwsDA2PsGxbTKedlLr2emTY+MTi4uL1GWpnMBRUL2ougwgmKBcMR2GrfccS+xbAHCHh4dHG7MKOO6653Tb//7bf29u2Tn148ZxpS5fRjUw2pjRBLl61zcz15IFCTzxfKGKfrrBFADcl3ftfn7qmMKIP/+bS3/xyKX/+ehl979HvP+E4P3/fzx86c//5tIDP1j4s0ce37JzSqnLl1ENjLxx7OVdo9RlqWwmUvWjYgCV3YJsX8dxCgDu2PjE9pk5hRETp28Jf/ryK+fmhvO7W85n61+tffHV6udfLV3/6vKnX15Y+fK5t67/0Z/+5ebtE0pdvoxqwN3JHZ+gS5TKetc3M5eBW3YL6v3KEvsWANzJycnoE2B7Tt1c++zWqfOfvvfRtZPn1+aXvnj7zNVDp1fnfvvF9MnVxtGVswu3hg5etRm49Ylf/v1Pd8b+V5/4ZYS5ZyYnJ+kSpbLe9c3MtWRBwkw8X6iCtxTWqC4Uue1y9YCrPpww/v761Rs3f3326pFTy+98ePXspc9nT64cOLb83vnP9ry7/LPDnxw9v/YvU4t5APfbD22uVCr33Hd/hFnqIJUC99x3f6VSeeipISU9p8t/eWPurx/9bi3y+etHvvPM1OlopwxceGZbn0TJqFBUXQYutUVRVsi838qlnn9igfvq8c+X127+cm5l5viVQ+9fOXXxswNHlyfeXni7eWP3kaWXZuePfLj6k/2/zQO4UVR1mNJj4A7Onv3h8KsR3tZ++OxY7IAnJyd7blvukDXAGtBpoKgtBTV43H30xuK19cOnVqaOXZk9ceX4+c/2vnvl50cWDn144+VDSzum5w+eXq1PzrcCbsX73H7HnUL49kObB2fPbtk5JS5p4uDs2YeeGkL67XfcKS4R4dJaIlGk3H7HnbR9ERejHaU7tDY4e1ZwWZSk6bGUbJM4c+bR7/+AMvfRv3tscCb+hB5HuAiRMo9TetAyR7hQMm8pZL+lsOuda5dX1w++v3Lg11feeG/p3XM3xt++suvQwuzc9Rd+sfTs1Pz0+6s/GvtYD1zxAIPA4kNPDW3ZOQXACd5t2Tkl8Hr7HXcKtCnAFWwVtQRSv/3QZiBYtC+aAknFlkJsxcHZs2hEEBnjaQPW1udBnt41TYH79CtvtGqKgYsVy8CFKoyFlyU3GFMi3JffWp6/sv7G8ZXJdxb2v7vwy7M3Ro9cefEXl187+elz0wvbDlw4cHzl6d1n9MAV6KGMA4zw5z8EZNEIl+YiHRGuqCKArgA3tiLKgO/oNI3wt//wj4K5f7vlaU07DFxQhoELVTBwqSp6rw1TgPvCwcWPFtcnf7X48zfnxw5fnDm5vHPmt8+9fn78ncWtB+Z/OvnR5NHlp16e6wS4ACV4hz/8H3pqiJJR0EpTvlKp3H7HnZ0DFx2Jiso+Q6VSEXsdGkp2kvXjyV898OD/euDBB+t73tGUZ+BiaTFwoYreIwZd663AES4UpQp6xbXNjf3S7Lnpyx9e+vz1o5f3HDm/563zrx+9/Mov5ndOn/vZ4d8Mv35+24Fz4+8uP7nz/U6AiwhXsFUwDpyFAFRFgas8eNA5cJWK6ALozyrUfeyftz72o220/ajMwIXjtvVJlIwKRdW1BEBQuCXzNSXC3X5g/uOl352cX/vVmZW3Plg+NLc6c2r19eNXGu8tTx5bGf/1ysSxtSd2nOgEuNiupWzFxq7AK8B3z333U+AqbBW7wEoithRAdkSyaBbbx/fcd7/Y+RWNpN/DFWD9yWsnf/LayShkaQoDF4u5KGim6dcSAMFGlszXFOA++dKH/3e8Wf/5hz8anfvnXaf/6eXTT7906v+8ePKpnSee3HHyiR0nnthx4geDv9IDF3/RU8aJRAC3q6cUxPO5rYA7OHtWNFupVMBcjEGwVUAfY6BAzFtm4GIxpwFfUXUtARBsZMl8TQHulp1Tf/bI43/0p3+p/6/VbykIouWNsHK1z8DFYi4Kmmn6tQRAsJEl8zUFuD9uHN+yc2rz9gn9f61+LYyBG70ZMHCxmNOAr6i6lgAINrJkvgW80yz2S7MoLzglpQYmJyfbv0mqPCUseecVDMLzhSr6STAlwk0JF64e1QBHuIieiopS0/RrScQHG1kyXwauesg4Sq6SpjBwsZjTgK+oupYACDayZL4MXAYufN4XikKMvl9LFiSMwfOFKow9rKH32NjcYoA7yZ+eaIC6LJVjXQEFzMxlAMFA/QQgTMoS+xYA3IGBAWiZhfw0oNGzmUjVj8qSBQl/4PlCFf10g2HgUrP2lczAhTn1KDczl4EL8zFwU/08owYEVMUsp9SARs9mIkY/KgYQ9Qe9rsqYa4l9OcKlbtxXMgMX5mQAQRXGRosMXGqjkJzSfVuB4Mb57934+IGNW5999dVXof74IpEGWunZ2CWn9ytLFiRMzfOFKkrqsbH+XMBJs1gQ3Djzhzc/qq5fqH529N+vXmneuuW/NZ0qneWuNDAwMNBPR3T45FU/WTM6F0vsa8SWwhefbN1YfeDmpW/dvFz78uR/uPj2H6+srHQb5zYaDfGLCl1RqY8Lx97YxHxj771QhZm5HPHBQP0U8WFSltjXCOD+bnHHreX7v1z41pfN//jlsa+dmf7GuXPnNjY2YIxOhEql0mw2aUnB30rFnWOlUqnX6yK32WxWq1XHcarVKsoIAWVoOyWVGbgwnJm3EP2oLAEQbGTJfI0AruM4107ffWv+v2y897Vrb/27n41uP3/+fFfAbTabAqywn+M4AKtga7VaFUSm6UoxWr3sMgMXFtSjzcxcSwAEG1kyX2OAOz+48dtvXj/0bw6P3Xf48OHV1VVlSwGhaKPRqHofkdJoNEQAKy5F6CqsSMFarVYbjUatVosSlhaD+ftAYODCiGYiVT8qSwAEG1kyX1OA+/knz25c+ua1Q/923759v/nNb5QvzQQuYRvsHoh92yhDRUlKUgHiWq3WaDRoequ66Ku8AgMXttOjzcxcSwAEG1kyX1OA+8XCcxuXvrn25r9668jBa9euwQxCoHGr2B9AAQFfhaEilyaKFkQKTWfgQpMQGEBQRYFfT1kCIKjakvmaBdxPD/3rI0eO5Adcx3Hq3ocSXOEvPKDsAke4sKCZtxD9qCwBEGxkyXxNAa7jONdPf33+8B8eO3bs+vXrMIMQlC0F4FLs57aKUilJUUVs+NJLWkzpt9SXDFyYT482M3MtARBsZMl8DQLutWvXPv7448uXL6+vr8MMQhAPIeBbMnyBhicTYqGJYsouBDCNxil/la7Le8nAhe3MRKp+VJYACDayZL6mnDSD3jsR+pKPnUy8qzJ80ix6nKlEKZacvIJFLJmvQRFu5zRh4HaiK45woSV9LGlmriURH2xkyXxLCVwYiQWNBhi4UI6ZSNWPyhIAwUaWzJeBC4v3m8DAhUX1aDMz1xIAwUaWzJeBC4v3m8DAhUXNRKp+VJYACDayZL4MXFi83wQGLiyqR5uZuZYACDayZL4MXFi83wQGLixqJlL1o7IEQLCRJfNl4MLi/SYwcGFRPdrMzLUEQLCRJfNl4MLi/SYwcGFRM5GqH5UlAIKNLJkvAxcW7zeBgQuL6tFmZq4lAIKNLJlvKU+awUgsaDTAJ81wiqmMgiUnr2AaS+bLEa4GWeXO4ggX9jMzhtWPypKIDzayZL4GAXfh00+f3Lfvk6tXb968CTOwkFgDDFyoTo82M3MtARBsZMl8TQHu5WvXfnLw4JWNjS0HDnx44UL0B8NgGAuEZr1aqdTcVwe1/VQq1XrozZlBDQYudGEmUvWjsgRAsJEl8zUCuJevXXvm4MHPPd2vbWx8v9GY6xlzm/VqgCx64VEvyHLIC35JquM4jRp+B7JSa5DWHIe2584u1GarBt1CoK1sXHYpr1GiUWuFXAYuFrMebWbmWgIg2MiS+RYP3EtebCtoK7S/srHx8P79p3vEXAJFInqsrNUIPgORENEjKOjoNGph/NEGBW+rQZuxDXr8pnQNGhdsF9fKEEKFpAszcKUmHDORqh+VJQCCjSyZb/HA/eHevVc2NqB3Iby5sLB5YmJpaUlcVqv1uowjfbh4qPNCSz+h6rLMTag1/LwAQ0FhyTLSX0DFRg3ZIpGGjwEf3ZjWb5uGxxhq8Cd+0LSbqbQZ26DbthwEGY4/XPRLY+dwJ8HEGLjQhR5tZuZaAiDYyJL5Fg/chatXn3z99TXC3FPLy9/ZvXt6enp+fl7YI9jSlDyqyU1OxHpVASr3b26PWLKk4zixnIKlwc+Ao+AZaSTgI02U5EVrZKPAux1IekreBiFsbIOUnvIWI+4ibg/BRDBoGvdiEJ7AwIU+zESqflSWAAg2smS+xQP31q1bZ+bnN+3fv+Ix99Ty8qOjo3v37j1+/Pjq6qqwR8AmCaRQikc9P0UWADPd9+t46JP/CwJfaWxB2ma9KrPQCAk4g0YChjrBMGRboZSgnYC3IG5sg7RGgFd5VwlSKHBpHTmM37+6jYELZejRZmauJQCCjSyZb/HAdRxnfX197sKFh/fvf3Nh4Tu7dwvarqysbMiwN6CYhEsopS1wCSJhYCq4f7w3QryVdHb/FbX9HiX7RPXg73/ZXDAwbCJ4WcGuhtd0td6MbVDOz61D8OonBym0HInM5Sjcfxm40IaZSNWPyhIAwUaWzNeUk2br6+unL1x4bM+e6enpEydOUNp6r4CUzz5J0MRsKQguygI0wkVhWFcVvC//SXxLdgrkBkJAUrewX9bDqKznxq5hAmMw7mhkHbEJUK3fhtsAaZCE1ESUtYFWmeDOI+gkPCs+aYZTTGUULDl5BdNYMl8jIlwBivX19aWlpYsXL66uriK2FVkB7EAXD3VesOjzLggYFfIKJiFkBeZCeALKogDziRuMwSsiA18PpWi81WNhGLbfqdtm5TZ5Fwk1KAHvlsQkMWjvzuB2B8pT9oamxBEu1KGPJc3MtSTig40sma9BwIXqLRdaEjRWL5TP4QIMXOjDTKTqR2UJgGAjS+bLwIXFzRG8wBYhrHZcCLSjpRi40IkebWbmWgIg2MiS+TJwYfF+Exi4sKiZSNWPyhIAwUaWzJeBC4v3m8DAhUX1aDMz1xIAwUaWzJeBC4v3m8DAhUXNRKp+VJYACDayZL4MXFi83wQGLiyqR5uZuZYACDayZL4MXFi83wQGLixqJlL1o7IEQLCRJfNl4MLi/SYwcGFRPdrMzLUEQLCRJfM15aQZ9M5CVhrgk2Y4xVRGwZKTVzCNJfPlCDcrvhnXDke4MImZMax+VJZEfLCRJfNl4MLi/SYwcGFRPdrMzLUEQLCRJfNl4MLi/SYwcGFRM5GqH5UlAIKNLJmvQcDlt/bC+TIRGLhQox5tZuZaAiDYyJL5mgJcS97aW3VfBFSDk0GoVCrNZvBqHqSnERi40J6ZSNWPyhIAwUaWzNcI4Bb51l4YPCw0Go3gNxc9RFarVRRpNpv0sup9kIuKCkbr9bpCWzTSaDQgo52UAgMXCtSjzcxcSwAEG1ky3+KBW/Rbe2HxQKjX65VKoBlBSQpEClwhV6tVhKgo2Ww2aTuUv6ILlPR+ZL3aaDSCQaSWGLhQoZlI1Y/KEgDBRpbMN8AKZu44+b5WWgFBJ2/tFeQSkaOAFE0RpBN/rYsyglyaMu6Pe3s0FOXp3AX7QE9kUThS4Na9T61Wq9frojAtCeBGY1jaiOM4oh10l15Q9Ewb1C91M3MtWZAwE88XqsibSLQjRc58LRQP3E7e2lupVMBQgTOADNhCGaBNU+b3r/xC+ehf+qhItU83CtwXnckdBhHbolPBa1GRJkZ5ipGjsLLhQHtPIDNwobTMl00PWmbgQsl9BVyc9OiZoICgs7f2+vungJSCP4q5Tsoo5RXCAqbU5DQRXUAQBBdxMcZGq7QFLm2K9ptY5pNmPXPpPDqy5OQVVGfJfIuPcDt7a68KXMoygSSkgFxIAbNoCmSxt4AyFJ00EeXFdoS4FFuxIKzYVRBZSrNtgdtoNDjCpQpXZI74qELKGLPrx2yJfY0ArmCu5q29+LoJMMWGALwQQOykjH5LofMvzarV4JsubCBgJOJRBzFC5GLAGKdIiRIZJZMJyl8StBG965uZa8mChJl4vlBFX20p0FlBznXJtQKB5q299CEtGj+K0FKkAHMAGf1aTCmj/9JMfIWFuLXVUwroCHoTNwaMBO1gqwHfxdHQWGxPU3ajwTRCKz2X1H0ZQNQZcl2htCNFzq9fS+xrSoSr2LXVZeZ/d7fqKI/06Ldz6CUa/yIrscDAheryw0R+LVsCINjIkvmWA7i1Wg3xJixURoFPmmmspoeXJQsS+uH5QhUl/Zss1p/LAVyqepY71ABHuFBUrOsbnsvAhYEYuGtUF4rc1rk1IFCa4ss0GtDoua2NNP0WVZcBRI1SlBXy69cS+3KES924r2QGLsyZHybya9kSAMFGlsyXgQuL95vAwIVF88Nifi1bAiDYyJL5Vi71/KMBAbTPQnoNDAwM9Ny23CFrgDWg0wBHuOnJZmgLmhtbfnFZfi1bEgHBmXi+UAV/acZfmlFnMFRm4MIw+d0G8muZgQvzMXAZuNQZDJUZuDBMfljMr2UGLszHwGXgUmcwVGbgwjD5YTG/lhm4MB8Dl4FLncFQmYELw+SHxfxaZuDCfAzcXIDLb+2lHpZeZuBCh/lhMb+WGbgwHwM3e+AmfmtvtVrXve224f8IAzWeJTIDF4bOD4v5tczAhfkYuBkDt/1be5v1VmBtle5Zq1Gr6HlMbaqTq/5v59QajlOtkEa9gT0ks/ELO9n0qhtR+zwGLnSUHxbza5mBC/MxcLMEbkdv7U0G3Ga9WnERmcGHDKBardWAeZLuUDmDLtM2wcCFBvPDYn4tM3Bhvr4CLt4p1DNBAUEnb+2tyxDSjRxdjIqPewX0KemO4wQ/6XjbH8gqPn+r1XpdZvtJ4WapsV2ZwNTtsVHzSU7SaRm1ehHX/E6znrl0Hh1Z8o4vqM6S+RZ/0qyTt/ZSlknU+RC8Tf71rqS7G7uShrVKgEchVWWKI3cdYqpTSsqmvLdPurvGPnJJOrqj9QqUlRsbHUl+cVl+LXPEV3YL6n3DEvsWD9xO3tpLWSZjVRHkBpu0Srq7kyBpGI6CvX1YiemgDPZfXSGyESGbAnD9iiQdTdGFUaDMwIXy9UvdzFxLAAQbWTLf4oHbyVt7KcsCenq2wiUEmBC1giy5qxtK8eAbpAT1iUTAipLNerVWJ9/mkTKkZmEiAxeqNxOp+lFZAiDYyJL5GgHctm/tddEpo07sDwhTAX9KupsrCYgsNINa0TLwgJAgmwoiXDfbe+gsEiyHKhZ3wcCF7vVoMzPXEgDBRpbM1xTgCuYuLS1dvHhxdXV1Y2MDlhCCeKDWhVvw7Zb7fBb2cJV0uodLsoIvzfynd0HScLPKs71yvyK8HSGQy8AlpsoPXpYsSOiS5wtV9NVTCnRWkPNbNmtra5rICwNgIb0GNHrO1b6akafplwFEFZtGk2bWtcS+BkW41J9YTq8BBi50aCZi9KOyBECwkSXzZeDC4v0mMHBhUT3azMy1BECwkSXzZeDC4v0mMHBhUTORqh+VJQCCjSyZbwUnPXomaEAA7bOQXgN80qxnLp1HR5acvILqLJkvR7jpyWZoC5obmz62MjPXkggIzsTzhSr4KYUsf7yGqpXlDDXAwIUyzbyF6EfFwIX5GLgMXOoMhsoMXBhGjzYzcxm4MB8Dl4FLncFQmYELw5iJVP2oGLgwHwOXgUudwVCZgQvD6NFmZi4DF+Zj4DJwqTMYKjNwYRgzkaofFQMX5mPgMnCpMxgqM3BhGD3azMxl4MJ8DNxcgMtv7aUell5m4EKHZiJVPyoGLszHwM0euInf2kutwjLVAAMX2tCjzcxcBi7M11fAxUmPnglRELR/ay/VfSI5+AHcRNWDSvg5xyApRpI/5xh9e4T3K5DyFx3xdja8bqJab9K69AXBMd1ok/ikWc9cOo+OLDl5BdVZMt/iT5p19NZeLVl6mtkhcCVSxU/xBm/scauTl/6KoYfbzOreEL2xQVFmxnT6UXHEB/P1U8SHSVli3+KB28lbe6Mv2SU/F+6zLUjxE8RPlvsxpqCYBzuR4hcPUCjeEOGHmm4T0U4dx0FMWn3oIRmKhtoQDhSCJuGpEOWLK6WzkQLhN0rIAon+ZeBCbXqUm5lrCYBgI0vmWzxwO3lrb/Qlu7CTfH2ug3fwNGouAYN38nhFfeBWPBi7KJaCT2e3kPLi3tvwLkkKSAnH6Gt7giE55OXtbmrkpeq0QfIqINGC5LjHfjI82n4nMgMXWjITqfpRWQIg2MiS+RYP3E7e2hsEjJJ35K05PjxrfizrWzCo4iX4wBX8oo0QooVIVwneB+z2hWJSDqXI963Be4JcN0kCV9b1UtBi8O41UT1cF012LTBwoTI92szMtQRAsJEl8y0euJ28tTdgkGRWVYSoangothHcCDeo4plUXPqJspEQSVtUcWujPJGD9t3NCXVXIcglVYJNDyV4pe1HhgGP7FZg4EJjZiJVPypLAAQbWTJfI4Db9q29Ab8km5DiUswLFmt18eJHv4RCQVHeryUbCZHU3VIIgRNdhIpJvKKwTIDnuEJQ13uzr8fjcEG6q4DxeG2QuqE2u71g4EJjerSZmWsJgGAjS+ZrCnD1b+0NGCTZhG/E8J2/t6Xgho7+3+ou3/xPreET0G9HNhIiqQhFZRX1fcBkA0B03eZLM7Qjh6P25YJYNorxeN6HYXttyDJwzI4FBi5UZSZS9aOyBECwkSXzNQi4UD0LmWiAgQs16tFmZq4lAIKNLJkvAxcW7zeBgQuLmolU/agsARBsZMl8+Z1msHi/CXzSDKeYyihYcvIKprFkvhzh9htnMR+OcKEKfSxpZq4lER9sZMl8GbiweL8JDFxY1Eyk6kdlCYBgI0vmWwBwJ/nTKw3AmxVBv9TNzLVkQcJSPF+oop9+O6IY4B7hT/4amJycpC5LZTORqh8VA6jsFmT7Oo7DwM2ffAX1wMAFofRL3cxcvsHAfBzhpvoB8snJyYIQZFe3DFysWDORqh8VAxfmY+AycEvAbgYuVqwebWbmMnBhPgYuA5eBS5dDIOcHLwZQoGXHyU/PRbVsiX1LuYc7t+D63sJcCaiX4RC3b9++devWQ4cOddgmR7ggVFEQSdOvJQCCjSyZbwEnzaJ7uAKgvurXzrUFip3AfeaZZ2q12ve+970XX3yxrYqOHDkyOTm51kcfS04iwWI8X6iinwRjItxuINpN2SN98xHArXmfzZs3j4+P66fGES6ipzSRZlF1LYn4YCNL5mskcAVQ4elr5456aBHJsJC/pUBTvZJ+ba/S0XPedvPauSORYkeOxKbpIVZkLgVurVZ74IEHnnjiiddee63VmBi4cBW4ElKoYGauJQCCISyZr8nAdZEpOOmyNZCI6AHVB7JXQMhSlP/GFRMsljBvRS2D0hXgilD34Ycf3r9/f+woGbhYzGYiVT8qSwAEG1kyX4OB60WwwCwERKYLc0f8ABZGC75KQ47bCi6CggtzNLEU2FWAyxFuYE3+1p7qopzaYOCGbUiu9HfmtrnRL83cAC0WqCQ5Nl9AMw6XorgP4JbFUCogdWywaEQiBS7v4RJ/dMW2XqeUp5dm1rUEQDCEJfMtTYRLoRnA1yemv50LLnrJC3OC4mvnjrYo5pcXTattoDFTBAHcrp5SgDcrgpmI0Y/KkgUJS/F8oYp+uqEaAVyfh0LB+IIrvKUQ3RjwCSlwKY2zdu60+J5M5PqZa+eUbYW1c0dD9eKCZFNAK8cxNDS0fft2fg5Xmjr0rx7WZcxl4FIDl9GCsWM2ArgSKfxvlhrgL82wYmNd3/BcBi4MxBEuH+3Nkow5tcXAxYpl4Hg9BjoAACAASURBVEIVxsLLkhuMESfNciKO5c3ySbO1Mn/4pFmZrddy7LylcKRfPxzhIqzjCBeq4AiXqqL32mDg9itv3d9SUHwLlwwgqKL3Sw5d661gyZ/Y0IYl82XgMnDh876gB0FRuZYsSBiD5wtVGHtTTLAWigFur16iaHs/1GWpnMBRUL2ougwgmKCfAIRJWWLfAoD76vjE9pkPBmfP8n/5aWD7zNyr4xPwZkUoCppp+rVkQcJSPF+oop9uMAUA96Vdo89PHcuPNdzy4OzZ56eOvrRrlLosldOAr6i6DKCyW1DvOZbYtwDgDg0NjzZmGYu5amB3Y2ZoaIguUSrrXd/MXEsWJMzE84UqOMJNdfBhcXHx1fGJ4emTuRLH5saH3zj56vjE0tISdVkqm4lU/agYQGW3INvXcZwCIlzHcXbs2DG2Z9+2mTmbsZjT3LfNzI3t2Tc8PEzXpyLrXd/MXAYuNaKZNkozKkvsW8BJszXvs3XbtrE9+57lODfTLw+H3zg5tmff4NatQsn99H8+edVP1ozOxRL7FhPhinv1jh0vjI1PjDZmRt445kW7Z3IK+vq92TPbZuaenzo62pgZG5944YUX+mnPC2GdJREQzxcaoEKa2NmoukUC13GcxcXFoaGhl14ZHRufsP2h2RTzHxufeGnX6NDQEPZtjXIyrJw0o2LgQo18Q6WqKJc2CgZuhorLb0Fu2rRpYGBAGSou00AkTd385ptmVPnV5fnC5cqFGAxb7xuW2JeB6/qD3hUYuFgzbXWl12SaXEsWJFTN84UqCvS6NB4bW5eBy8Cljt1eG7FuhCbyy2UAQcn9BCBMyhL7MnDbI4YjXKyKApe6JQsSqub5QhUFel3mAQQDtyVwH5efb3zjG/fee6+8epz6QYGuwAuSGiLzhYHGi2qZ7QsTFLjKMrc+A9c1a6xaQVgGrgmuzwAywQqxKwUDS5NriX0ZuC2BCzfiLQWootXNCQXSLDl9XUsWJDTJ84UqCvQ6vU8myK1c4g9rgDXAGmAN9EQDHOG699HYOxW2FDZt2gT59wK98baqizKxLWeSyxEQ1FigFdi+WVnBEn9m4LoOE7tsAFkGblaLKlbPaFyfa8mChDZ4vlBFqxWKAnrPMSqXgetazSiTdOhGvCChqJJaUO91bN++tC8Dtz1w+UszE1yfAWSCFfQ3iTS5ltiXgcvApQu5vTbSLKo0dS1ZkDAGzxeq6Ke/YBi47RHDEa4Jrs8AMsEKaW6Z+rqW2JeBy8ClC7m9NvTLJr9cSxYkjMHzhSo4wk31TjOqR0VOs1zzc1COcKmZ0tgoTd387JtmVPnV5fma4HWZ25cjXNeserUycE1wfQaQCVbQr5Q0uZbYt7B3mkVfapQyJb93Im3yPimHl3n1/Oab+VAzaZDnm4kajW3EEvtyhMsRLo2c2msjTRSTpq4lERCMwfOFKtr+DZrGr3pcl4HbHjG8pWCC6zOATLBCfniyxL4MXAYuXcjttZHfktO3bMmChDF4vlAFR7j8lELgDHpM5JfLCzKwQbuvPfOzQn4ts3370r4c4bpm1S8b3lIwwfUZQCZYQb9S0uRaYl8GbnvgpnGj/Opa4qCgDM8XqmgbIuTndfm1bIl9GbgMXLqQzdWGJQsSxuD5QhX9dINh4JqLGH00wQuyLxckJsX2hSoYuHZ9aaYHX1G5vCD7ckFiUmxfqKKvgGvsyZNuB5bfSRU+adatLfIon5998xht+jZ5vul1aGALvKXg3kf1USo/pWBCrMERnwlW0K+UNLmW2JeBy8ClC7m9NtIsqjR1LVmQMAbPF6poGxKl8ase12XgtkcMR7gmuD4DyAQr5IcnS+zLwGXg0oXcXhv5LTl9y5YsSBiD5wtVcIRr11MKHOGa4PoMIBOsoL8ppsm1xL4c4bpurHcUBq4JS92SBQlV83yhirYrVL9+jcpl4DJwqWO310ZR7ssAonYqygr59WuJfRm47RHDEa4JS92SBQlV83yhCo5weQ83cIb87vn6lnlBBjZotymk16SZuWzfvrQvv9Os/WkUPmnWXkf5l+CTV/nruMgeLLEvbym491F9jMNbCibEGhzxmWAF/UpJk2uJfRm47YGbxo3yq2uJg4IyPF+oom2IkJ/X5deyJfZl4DJw6UI2VxuWLEgYg+cLVfTTDYaBay5i9NEEL8i+XJCYFNsXqmDgWvSUwsDAwKZNm6jtFVmPxfxyeUFSQ+Sn56JaZvv2pX05wnXNqllUDFzq93pd5ZrLAKKG0HhsrlbIr19L7MvAZeDShdxGGwUuZksWJIzB84UqCvS6zG8wDNw2iOEIl/p9ga7PAKKGyBwEaLyoli2xLwOXgYu15gtFLTl9v5YsSBiD5wtVFHib1/tkglw+adbmdI2Zx8zW1tYsOZkD8/B8oYq+FCyxL0e47n1Uc6fiLQUaaOh1lWsuR3zUEBqPzdUK+fVriX0ZuAxcupDbaKPAxWzJgoQxeL5QRYFel/kNhoHbBjEc4VK/L9D1GUDUEJmDAI0X1bIl9mXgMnCx1nyhqCWn79eSBQlj8HyhigJv83qfTJDLwHXNqlEcR7jU7/W6yjWXAUQNofHYXK2QX7+W2JeBy8ClC7mNNgpczJYsSBiD5wtVFOh1md9gGLjmIkZvbF6QfbkgMSm2L1TBwLXox2uMNTYvyL5ckJgU2xeqMHYN6kOi2FyOcF2zxqoG9jYzlxckDFRSC+r9iu3bl/blk2ZlPbZjyckcmIfnC1X0pWCJfTnCbRPh8lMKNNAoMJbkiI8aQh8dlzHXEvsycBm4dCG30QYDV1FWfmizBEDQpyXzZeC2QQxHuFgSQsgPMfqWLVmQ0DbPF6oo8Dav98kEuQxc16waxTFwqd/rdZVrLgOIGkLjsblaIb9+LbEvA5eBSxdyG20UuJgtWZAwBs8XqijQ6zK/wTBw2yCGI1zq9wW6PgOIGiJzEKDxolq2xL4MXAYu1povFLXk9P1asiBhDJ4vVFHgbV7vkwlyGbiuWTWK4wiX+r1eV7nmMoCoITQem6sV8uvXEvsycBm4dCG30UaBi9mSBQlj8HyhigK9LvMbDJ80izm2I95jJv5/j/ehKTEVikiy5GQOVMvzhSr6UrDEvhzhxsR0A+Rz77333nPPPSRhgN54C7z3cgREDZF5JILGi2qZ7QsTFLjKMrc+A9c1q0atDz744F/91V9R2yuypq6+5ZS5vCCpIYqygqbfhYWFwcHBl3ftHhvfM8mfkmhgbHzPS7tGh4aGFxcXU67QWN9g4LYB7te//vXbb7+drm1FjlUryuSXy8CFkvNYGGg8mQVHRnaMjU+MNmafnzq2feaDwdkzg7Nn+T/jNXBm+8wHz08dG23Mvjo+MTKyI5n1hfPE1mXgusqJVY3jOKOjo3ffffddd901OjqKFagIrepqlI4W0tRl4EKNGgvmbYVYC24fGh6b3Dc8/b7xfOF7QEsNDE+fHNuzb+u2bdTNFDnW+igTm8vAdfUTqxrHce6+++7R0dGRkZG7774belSEVnVFsfxyGbjUEPnpuduWR0ZGXt2zd5sb1bZczJxVCg1sm5kb27Nvx44d1NOo3K1vOI7DwHUVGKs4Ed6KXEFeqmvIsXV7kMvAhZJbWRAFemajhYWFsfEJjm1LwdNOBvns9Mmx8Qmxnwt3gpDArxi4rvZiFScgKw4+AL7QNYTYuj3IZeBCya0siAI9s9Hw8PBoY1ZZyXfdc7rtf//tvze37Jz6ceO4UpcvC9fAaGNmaGgIvkSFBH7FwHUVGFUcCIuTZq2C3GjdlCZBdX3LDFwoKtaCheS+vGv381PHFEb8+d9c+otHLv3PRy+7/z3i/ScE7///4+FLf/43lx74wcKfPfL4lp1TSl2+LFwDI28ce3lX/Fc4+hUam8vAdRdmVDXAK4ALBNOVHFuXFoi2nFUuAzcrTWZoo7Hxie0zcwojJk7fEkP98ivn5obzu1vOZ+tfrX3x1ernXy1d/+ryp19eWPnyubeu/9Gf/uXm7RNKXb4sXAPuTu74BHU2yAk8h0+axRzbGRkZueuuu0SGOGMm5LvuumtkZCSmQhFJlpzMgWpLMd/JycnoE2B7Tt1c++zWqfOfvvfRtZPn1+aXvnj7zNVDp1fnfvvF9MnVxtGVswu3hg5ezRW4t99xZ6VSKRxehgygPvHLv//pztj/6hO/jAzyzOTkJPwwpcARrnu7Uu5UCG9//60iIlw8JYb7mxCUuj3L5QiXqrooKyj9esBVH04Yf3/96o2bvz579cip5Xc+vHr20uezJ1cOHFt+7/xne95d/tnhT46eX/uXqcUeAPfbD22uVCr33Hd/hCnqmPu7wL+8MffXj363Fvn89SPfeWbqdHTuk5OT1NkgK9ZHuhBicxm4rnKoapStAwpcPChGNUvr0nSN0lEsTV0GLtSoWJCm520FxYKxwH31+OfLazd/Obcyc/zKofevnLr42YGjyxNvL7zdvLH7yNJLs/NHPlz9yf7f9gC4UZRYm/LD4VcjvK398NmxWIWYCNyFhYXh4WE+yFiKE4zK+UWFUApEDMktxQ0mFri7j95YvLZ++NTK1LErsyeuHD//2d53r/z8yMKhD2+8fGhpx/T8wdOr9cn5WOA+9NSQiEkr3uf2O+7csnNKyAhUkaJErzRdVEFrAiviEi2LRHEp/i++xLvnvvuRiE5jwVSmxJkzj37/B5S5j/7dY4Mz8QcCjQMuH2Qsk6vNqucXDUGqHvTlBe6ud65dXl0/+P7KgV9feeO9pXfP3Rh/+8quQwuzc9df+MXSs1Pz0++v/mjsYw1wxfarAN/td9w5OHtW7Mlu2TklqCo4KHYMvv3Q5sHZs6Ct8ExRngJXyKI10aCoQlMqlcof/8X/U6lU0Gb/AHf27NO7pilwn37ljVar2Czg8kHGVnYyP12cXxwaHqbM1YOvqNzyAvflt5bnr6y/cXxl8p2F/e8u/PLsjdEjV178xeXXTn763PTCtgMXDhxfeXr3GQ1wozwFcAWFH3pqaHD2LOUphS8ATQvQisJRlSri8mt3/KdKpQIKm+/SXY3wb//hHwVz/3bL05qKBgGXDzJq7FSKrOj5xaKQqu+3vMB94eDiR4vrk79a/Pmb82OHL86cXN4589vnXj8//s7i1gPzP538aPLo8lMvzyUA7kNPDdG/9+nmgMLTaISrFBicPasAV9D5P//XP8F+AkLdUjh2J4P88eSvHnjwfz3w4IP1Pe9oypsCXD7IqDFSibKU84t68BWVW17gPjd9+cNLn79+9PKeI+f3vHX+9aOXX/nF/M7pcz87/Jvh189vO3Bu/N3lJ3e+nwa4IsKlLqfQMwFwlRYEoPsv1H3sn7c+9qNtVHVR2RTg8kHGqG1KmkLPLxaFVH2/5QXu9gPzHy/97uT82q/OrLz1wfKhudWZU6uvH7/SeG958tjK+K9XJo6tPbHjRDLgKhuvW3ZOif0HJV1EqXRLQcgAqKhFdw8Eo//zt/5EfHUmGuynPVyxVH/y2smfvHZSv2xNAS4fZNTbqUS59PyiHnxF5ZYXuE++9OH/HW/Wf/7hj0bn/nnX6X96+fTTL536Py+efGrniSd3nHxix4kndpz4weCvkgGXfj8mqAomihAV+wyVSoUCF3u+KCDcVVyK/wt8IwV0LpFjZzLULIF7KcWHDzJmYk4TGhHnF1P4Ald1NRD7WNiWnVN/9sjjf/Snf6n/j39LwYSFEDuGycnJrPw71cEHz73UJ9dMOMgYqzWaqNzqaVbfyAnOL4pnFYqKYfX9ljfC/XHj+JadU5u3T+j/418LM3bpZRnh0ueBIOtdH7mx93MTDjK2tZwC3Og3tm1bML9A4vOLsC/8gQpF5ZYXuOa7Co9QrwGjgWvCQUa9+rB7hd2uvgTu4OzZZOcXi0Kqvl8Gbluv5gI5acBo4KY5yAgU6jfy8UXB7XfcKb5LxROCAp2iuuCp8nVt9PkY+t1CpVIR5fFFgThjMzh7NtpyTtbNstlE5xf14Csql4GbpWPw63+60YDRwE1/kBFfhuLkOE0RTAQWxTMrgo/0ycFWz8dEgQuYiocZUXFw9qxodsvOqdiWS7EAEpxfLAqp+n4ZuKXwt74cpNHATXOQMfqnPSUdPQwTG7eK6qCzsH1syQ73cDGe2JbL4lvdnl/Ug6+o3LIAtxS/XsSD7FYD9GsMyAnWQvqnFNRf0kxzkBGAA8sU4AKUsRhF2IuAl24+iDbbRrgIeLGr8NBTQ7EtY5CGC92eX0zgRmlcsMO6pQDuwMAApsNC32iglVkTrJTsgZvmIGNb4IK/scAF+GhAGlsS4BZVaL9CFlu3NJ2WVIJo9Gus0NX5xQRuhKWVX10GLpTMQo81YDRw0x9kBM7Et17R44b4VTqUFHHrPffdH3sMUcSqgoZCVoALjiO8Ffu5CIdbtWwsYZWBdXV+MT9opmmZgdtjynB30ECWwE3zip7Y53DTHGRM8JSCIAuAi30AsBg7vyILDFV+rVmkK08poLAIddGCgrP+uMzwxU1pnKpV3VK806zVysTSZaGMGhgYGGjllt2mZ7+lwAcZS8pffBWbJg7Nr26pI9wb57934+MHNm599tVXX5WROJaPudV9NIG3Zw9cPsjIwG21PhM4KJoqL3BvnPnDmx9V1y9UPzv671evNG/d8t+ajqmxYLgGjAZuSXHDw+YIN3bZd3WTiK7MLz7ZurH6wM1L37p5ufblyf9w8e0/XllZ4Tg3VtXGJkbNKobalW+IKtlHuEyukmqAgRu74LtaVNGV+bvFHbeW7/9y4VtfNv/jl8e+dmb6G+fOndvY2IjtK1kivrdwHKdSqdTrddFOs9mseh8UEAIKJOvOwlpRswoldOUbogoDV32OuKS4TD9sBm4sSrpaVLEr89rpu2/N/5eN97527a1/97PR7efPn88WuAKsYvCCsM1m03Ecmk7l2GlyokYDsWZ1HKcr3xDtM3AZuL4GGLixS66rRRW7Mq/ND2789pvXD/2bw2P3HT58eHV1VdlSQATaaDSq1WqtVqtU3IWJ+FSkVyqVRqMRHSSFabVabTQatVqNgRtVVOKUWLMWA9xuT8hxeZM1IDyyK8QoTpxf3fJ+afb5J89uXPrmtUP/dt++fb/5zW+UL80EIqFGStVKpdJsNhuNBoRqtYqSEBTgOo5Tq9UajQZNpzIqstChBkwBbqtxdDgNLmaUBmDN/KCZpuXyAveLhec2Ln1z7c1/9daRg9euXVOMrjCUXgoZrISgtEDTaRWaTmWlOl+21QCWhlIygT+n2lJoNQ5lWHxZCg3AmgncCBPMr27ZgfvpoX995MiR3gDXcZy69wG+Gbhw0QQCloZSN4G3V7o9KUHLtxqHMiy+LIUGMjxOQ50kK7nUJ82un/76/OE/PHbs2PXr1xVnULYUgEixh0u3YltBk6bT6pVKBZe0jDIAvmyrgQyXBke4bbVtSwHcPhPct6Gj/OqWN8J1HOfatWsff/zx5cuX19fXoSshNJtN5UszFBC4BCshoIAQUB2MFuniqzYht6qrNMWXsRrA0lByE3h7LsDlg4yKYUpxCa9K4EaYYH51Sw1c6IeFMmoAS0MZfAJvzx64fJBRsUpZLuFVCdwIc8yvLgMXSmahxxrA0lD6TeDtGQO3kIOM1Wrdfc47/adZz6yp9IPpeQvwqgRuhMHmV5eBCyWz0GMNYGko/Sbw9oyB24ODjMqcvX0rCdxuiBnD1kj1qr89Vms4TrVSCcAuS9ZlCeyjBWWiAzU7BV6VwI0ws/zqMnChZBZ6rAEsDaXfBN6eMXDd7wdyPsiozDkxcKPtOBKjQRZJcU8AAdIk3S2sXAb1yyTBqxK4EeaZX10GLpTMQo81gKWh9JvA23MAbpuDjA333KL3cePGJmJE90rQsy5LiKSgiBc9AnrAHFLQ1m1/cJvspGXEiVpkDDSI9UZDSOqWb9QqGBNtmBRTTFKiS3hVAjfCNPOry8CFklnosQawNJR+E3h79sDVH2SsV31kiaHXKgHBhFSVKU6jJv6GR41GzaVdCJQtEBzoBYgMknwJ7WAMIHhQlpBUlPfbI+luYeUyqF8mCV6VwI0wz/zqMnChZBZ6rAEsDaXfBN6ePXDbHWSU+63e2EE9L8yM56kX74rA0q0TqtIKuEFUHAlapc7QDoQYbhKS+sVECkl321MuZRfl+hdelcCNMNP86jJwoWQWeqwBLA2l3wTenv1JMwHc1gcZuwauN0mxERFP5Cgxq/h+qzUKUQtCDDdJdRRr1qu1evh5BlJMMUmJLjM8TpPV6TLaTqlPmpXIDXioUQ1kuDSyj3Adx9EcZGy/pYC9UUmxmo9o/xo7DG4UG41wvY0JCkewV9Ejyvg7F2I/Gb2L0nIMocja3ewIB86kmNJLiS5xG09w38Y086vLES6UzEKPNYClofSbwNtzAa7mIKO3ddDmSzP/oVpJMfkVmk9O7BbgqQGg03EEC+UXZpUKyiiaCgFUfo0XLSwf+gpH1qIbimY51GgvJUqBVyVwI0wzv7oMXCiZhR5rAEtD6TeBt+cCXGVYfFkKDcCrErgRJphfXQYulMxCjzWApaH0m8DbLQGuDGJJ7BvaS1YUaeUlvCqBG0Fh+dUtNXAXPv30yX37Prl69ebNm9AVC2XRAJaGMuAE3m4JcBVF8WWMBuBVCdwIzeVXt7zAvXzt2k8OHryysbHlwIEPL1yI/mAYtGeB4O0IBs8c6WYc/p5EVzLvPCwNpaME3s7AVXRo7yW8KoEbQWv51S0pcC9fu/bMwYOfewpa29j4fqMx1zPmhr5aoBce9ciXEPK7CuW74PBXIrUG/bIk8khPqM1WDbqFQFv5Z6cciLxGCfkkPryrKAFLQxlAAm9n4Co6tPcSXpXAjaC1/OqWEbiXvNhW0FaoaGVj4+H9+0/3iLkEskT0WEnOqSvPtkveKbFoo4bHebyp0Ab9R9GDNgM0q4ildAV63QZxRInUICI8rAgBS0PpPIG3M3AVHdp7Ca9K4EbQWn51ywjcH+7de2VjA8oRwpsLC5snJpaWlsRltVpXzrKTJ3l8JHm/4+F+/1BreBjEaUxBOv+bCcky0l9AxUYN2SKRho8BHwPuOeFHzd1GSTH1sI/SJikJkHpMlYMgw/GHK0/Nh1oOxk8m1XsRS0PpOoG3M3AVHdp7Ca9K4EbQWn51ywjchatXn3z99TXC3FPLy9/ZvXt6enp+fl4oLXqWHWfNEeD5D5y7f3N7xCKwjOUUzAF+EuxJiJFGAj7SRBnqojWyUeAxXtIzYKSsHtug7NhtD896encRkYKAlwyWiBhG7wUsDaXrBN6e/UkzZUx8WRYNZHichp4Qy0ou40mzW7dunZmf37R//4rH3FPLy4+Oju7du/f48eOrq6vCMQI2SSCFUjzq+SmyAN0/DUMQzILTCWK5pyPFj0ORupKO3k+PRqPkYBiysVAKBhM62u63GYwqgDLp2QUuGY8nBym4S4RaloMo4t8MlwZHuEUY0Mg+cRtPcN/GhPKrW8YI13Gc9fX1uQsXHt6//82Fhe/s3i1ou7KysiHD3oBiEmGhlLbAJUSDFajg/vHeCPHWZysJUv0eEVF79cNbtm5SMLAwCv1tDtlutd6MbVDOz22K4NVPDlJouf6LcKltIHe4bLBEUZGF8moA1uzQ+rEzza9uSYErmHv6woXH9uyZnp4+ceIEpW2IYhI0MVsKgqqyAI0VUTjWHG6i9+W/Gk+K0jLGDUjqFvbLehiV9dxmwgTGYNzRyDryEOZtuA2QBt2RyPRAlLWBVpngDjHopOX0epGBpaF0lsDbOcJVdGjvJbwqgRtBa/nVLS9wBXOXlpYuXry4urqK2FYoLYAd6OKhzosXfd4FAaNCXsEkGVoCZzCHJwBlUYDJHQDJQdmefx0MxNtqDYZKWYhh+726bVZuC84VeY2IBgPMekMR40bf3p3BTQPlKXvDc+rtFZaG0m0Cb2fgKjq09xJelcCNoLX86pYauNCP5UJ3BKV8LlRxWBrKKBJ4ey7A5YOMimFKcQmvSuBGmGB+dRm4UHKZBS/eRQirnQmfNPPVg0WFJUr11ulBRvUvEdpGSzn0R03LUpyRRAOwJuwb20pRuQzcWHNwYg80gKWh9JVgLWQc4XZxkFED3NZZ2QI3eHiF7Bt5OiX7To6DV6XRvTJat1KpBi9Rk4XE1pQs5t7TXZnc290tK6+QLKNsaSnGzf0SXpXAjTC4/OoycKFkFnqsASwNpd8E3p4lcLs7yNiaqprvJjMGLvbrlT903LEF5xR9LYcHHD+ScBm3IkkJtemmV0Uj8U0pts3/El6VwI0wuvzqMnChZBZ6rAEsDaXfBN6eJXA7OcjoPUMSCgI91oWCO0SU1XpTye3sHKQ4K+kGk0p1RV8h0hEyClHdsicFQk/z0EbDZdwcklL1HogUkHe/OZbv6QkNg7bWWxlelcCNMNL86jJwoWQWeqwBLA2l3wTenuVJs04OMoYe80OAKeaBx1cIpIIZermdnYOkf7jLBtC4TIhAEyVk9wpxZbJoILQPgImEy7glSYoHVq8XkSiz4psi4+yNmOFxmqxOl9F2ynjSrDeG417y1kCGSyPLCDfZQUYahfoPEkoSuXokMWqlWg8eqJZlgvDQLeltlQJ/ker+y3ukfYK6booErmw59GMbYXRGYC1bDOrGpIjuxNOGfvjtDTU8DFmx5//iNp7gvo3B5leXI1womYUeawBLQ+k3gbdnCdyEBxnxuDZoBcH9okni00vsFrhKdR1wZaeU8KHfB5UFhNLjKRku45YkKX4VeWNAVnxTim3zv4RXJXAjjC6/ugxcKJmFHmsAS0PpN4G3ZwzctgcZcbjPxU44vkOKF9X6X+cDRiI3ClzsUYBjqELj0KBxojNSEicQ0YxXju4qEHTSlkl7Ibz66aQW6c7LlFlqeqjF3l3AqxK4EUaZX10GLpTMQo81gKWh9JvA27MHrv4gozjZ7UaO8ikA1xNVOQAAH4hJREFUHOhDijz/7QJZyY0Cl+w5qIxGO7Q7qjKyeRqKo0kgTIgr+ShaIHVJHBwu43LZ/4IwstdBgl9ZJvTNIR1nb2R4VQI3wgjzq8vAhZJZ6LEGsDSUfhN4ey7AVYbFl6XQALwqgRthgvnVZeBCySz0WANYGkq/Cbydgavo0N5LeFUCN4LW8qtbauDyYXd4SBkFLA1l8Am8nYGr6NDeS3hVAjeC1vKrW17gdnrYHUosp1B1D/bUomOvVCrNJtmli5YwPgVLQxlpAm9n4Co6tPcSXpXAjaC1/OqWFLhdHHaHEnMWGo2GPHpUEYisVqvos9ls0kvvPGSQi4oKRuv1ukJbNNJoNCCjl3IJWBrKsBN4OwNX0aG9l/CqBG4EreVXt4zA7e6wO5SYp1Cv1yuVYNXrgSvgW61WEaICnc1mk7ZD+Su6QEnvkZ5qo+G/4ifPyeXVNpaG0kECb8/ypJkyGr4slwYyPE5DT4hlJZfxpFknh90FufwnVLxIk6YI0om/1kUZQS5NGff5F4+GorzihJSeyKJwpBFu3fvUarV6vS4K05IAbjSGpY04jiPaQXelEzJcGsG9jmqhQ3K3Aj9tiuWyaADW7ND6sfPKr24ZI9xODrtXKhUwVOAMIAO2UAZo05RxHAflo3/poyI1H90ocB9ylDsMgs7oVMSqoiJNjPIUI0dhZcOB9m6+jKWhDDWBtzNwFR3aewmvSuBG0Fp+dcsI3M4Ou/s7pICUgj+KuU7KKOUVwgKmMBktL6JjUQZ9CYKLWBtjo+20BS5tivZbFhlLQxlwAm9n4Co6tPcSXpXAjaC1/OqWEbidHXZXgUtZJhSLFJALKdA8TYEs9hZQhqKTJqI8Ba7YigVhxa6CKKk02xa4jUaDI1yhcAYudTyrZQZurPm7uoVAh7Sp9fV1zVt78XUTYIoNATQCIHZSRr+l0PmXZtVq8E0XNhAwEvGogxghcjFgjFOkRImMkqUQYs3qOE5XviFmysAthcV7MUh4VQI3wvjyq1vSCFdoZn19vdVbe+lDWjR+FKGlSAHmADL6tZhSRv+lmfgKC3Frq6cU0BEsK24MGAnawVYDnmSgobHYnqbsRoMlErA0lDEn8HYGrqJDey/hVQncCFrLr26pgQv9aIRS/90d/XYOM43Gv8gqi4CloQw4gbfnAlw+yKgYphSX8KoEboQJ5le3X4Fbq9UQb0KNZRT4pJlitdi1kD1wOz3IGPlhLWW4XV7i9xW7rFe+4u4PSMa906KjmWhePc3AjdVg7LJBSSUXOkQBFvpAA63MqlhfmWlsbsbA7eIgowRuJr8GK9/WoEw59AO1XXckR+g1GrrwX0Qhf9OR/L6iTBIDwY9Lyvf1hsYQatLDKKndqs3w7/V6v0AZ1EJ//i9Vei+tEPGTTCG/N6koa2Bg4O677x4dHY11lN9/FTPgfVrlitbyy+3XCFexAl8aqIEsgZvmIJAyju4OMoZwk5uSU/VCKhPRHat7KX/Q13ECjBIcKoFooxb5SVzaZrhB79HIuv+DH6RN5a0/XhdBzIq7DmpEU8StQtI3pPaBgYGRkZG7vM/IyEjUMTZ5n2h6b1JMOGlGNUBlaEBZESH98kVpNWDoSbNODjKS3wv3SQFa+fhwAzIvZiPXeDdEXe53BcgIivlpQUK1/pAMFKv1JjoicZ/3p3lQIWhV+EaAxEYtiCNl3IxgMdyy30idpMLTQmlB6x7AvV9bRy+kJLCp8NZrlTRSw0aDTIym+DcLCXMMTASw4nJkZORu7zM6OqoUEJ5HExW5vyPcx72PmLKQlfkycBV/6I/LVmZVrK9MNjY3yy2FTg4y4o04PmNoeIjxeoSJKYmtS6DOcVDMxabHOv8fl061hkQPjRllQb+/aAsYCF4sSZhHkCWHEcBRprjdAX9Bc3gBhPyaxOerHCWtDvSSRFmOtEiSArzKcUdT3JrhyaAteJVwlNHRUQW7vKXAwIW3WCVgaSizjkUqysTmZgnczg4yyuBKkiKgVRBpujFu9G06oZKSR6FEj3FeECxjVdkLBW5QxdNNcAlmQ2c+nJr1qmyQ8BYBpwyjg7/uaXdBY8rdBWOD4HbnTyy2zaAgGiVJUbxGU9x6pAqawRbtwMDApk2bBFsdxxHY/frXv/7ggw/e632QK8rQ/9NHwWk6ZKWu0ruSi1pC+O53v6uUpwVi66L82toaLazIqIvysdoYGBgQGhDV77333scffxyLCm3SRljuDw0YCtzODjK2BK7yhl1JngAQITK2Bq5nY/H1UXyEG7TjFQ0uY4DruHsJDZW3MkD1tz/8FsLVgU7qc0FfBHz0RiP3U+S+cLjNGFSSpACvMjGa4g6mdYQrqEEBxMCFNhi41JOtks0Fbpq39gJGLmSq9W+BuBIfKEBjtOiGQM1Huldtf7B/gOpBkuc10RZCzuShOxzfks0CLyQNgnG3sF/Ww2hQr/WXZmGmyhgXo3X5KNskEbAco1QOBSlaBFqRQjgvW5D/wqt4S0GqxP0XMezvL3hLgWrGHhlLQ5ky9Q0lS/Ec5Ga5pYBGNQcZPXx4gaH8kh9kEUGpG+KJLFzLqA8lKXBd2Q84fbrJ79V8YItmQl+aBVU8kgWXAR8xFzUgJIDzyriArNwmw3bxEIC8VQQNax4Li2uw3pQRrteH144I6SWPg3Q6eagME4mmuI0hm0zTfepLXPKXZlQtdFExcKlm7JGxNJQpU99QsnoK3GjfqVIQp6VqpU8qt+Rlh/MLETtUZ2BgQGwg3HXXXcrzCaKc2HBI4GToJk1dE57DZeDClFYJVgAXsVnwB7VVRm45WS/ejY1RW1YJMkLf6wXJrsQHH8L68K+6ukm0Wpl82D1Wt2VJbGXWrnxDTDaXLYWy6JHHSTUAr0rgRmgnv7omRLiYJgRlvtAhCjiO0+lhd1rHk4M9tEiWmyBDkthMTsxQA7FmbbVpgH4V3xDplUspPq3GgS5ZKJEGBgYGUvgCV3U1EF0R7Q+7q5v4gctogdt6byhooCOJfgVSpX8BeQPD0SH/uwJaoKPm+6FQhkuDI9x+cIhM5gBYxN6Z0UVRuWWMcDs67J4MuGn38mHP4LFL7+Fx+V228jhL60GShvpWxNJQZphgLTBwFR3aewmvSuBG0Fp+dcsI3E4Ou+MhG/cxFG9/3osl3asgwg2n/36bAo/iVG77AxqiihM36gn4SHXYyxUITN0e8R01SadlQnXtuMDSUKabwNsZuIoO7b2EVyVwI2gtv7plBG4nh90py5SDKni+W0l3f9VI0hAPaSPkDX68U+46xFSHwUhTOB7pI1d24ZalMq1rh4yloUw3gbczcBUd2nsJr0rgRtBafnXLCNxODrtTlslYVeyXBmcVlfQGIWA4CnYfXgmleE9vx1SHwUhTAK4/JApZKtO6dshYGsp0E3g7A1fRob2X8KoEbgSt5Ve3jMDt5LB7CLjidIvUJtAJQeYEIWeQJUPcUIoAbrjZoBEhEZiirvvrIXXyg3ekjFrdgmssDWWuCbydgavo0N5LeFUCN4LW8qtbUuC2PezuAlce/cP+gNAn8Keku7mSgMhCM6gVLQMzhQTZVBDhutneQ2cgNSkTqmvHBZaGMt0E3s7AVXRo7yW8KoEbQWv51S0vcAVzW721V7LNOw/uUlN+lB/Mk8n+uXEQMKjiH4aJAtdjuqwPhkqbyR7D2xFiWCiM7mQtq/7F0lBmncDbGbiKDu29hFclcCNoLb+6pQYu9MNCGTWApaEMPoG35wLctaWFqfo/Xl345ObNm8oQ+dJYDcCrErgRJpVfXQYulMxCjzWApaH0m8DbK3gdUwIhdhyfLlx+a/szN68sTv3TDy+c+XB9fV0ZJV+aqYEMX9yUwJfaVjHhnWZtBxm7Isw0N4+qcw1kuDQyjnBd2g799KvPP3Mc59b1tdf+/vsXPpzLlrlyL8odeaVSqdfrQnHNZrPqfVBACCjQuX7tLAlYJLhvQ2P51eUIF0pmoccawNJQ+k3g7VkC99NP3NhW0FaM7Obq8oG/e/jCB6czZK4Aq2hfELbZ9J4E94Ar0mkZRUd82UoD8KoEboQ286vLwIWSWeixBrA0lH4TeHuWwH39R0/dvLKojOnykYOT/7B5aWkJ6YhAG41G1X3buHtM0XskxeVnpVIR6UJALQgUptVqtdFo1Go19zkZBi50lEiAVyVwI3SYX10GLpTMQo81gKWh9JvA27ME7rXFhZn/76lb19cwrOUP3v/5pu9MT0/Pz8+LRIFIFKBUrVQqzWaz0WhAqFarKAmBglUUqNVqjUaDplMZFVnQawBelcCN0HJ+dRm4UDILPdYAlobSbwJvzxK4t27dmj975vV/2HxzddlxnOUP3v/Zpv+9d+/e48ePr66uirEqDKWXQgYrISiTpOm0Ck2nslKdL1tpAF6VwI3QZn51GbhQMgs91gCWhtJvAm/PErjiAe8LH84d+LuHLx85+PNN3xG0XVlZ2djYEGOlhBXbCJgDpaeyRYAySjpaq3sfXDJwqcY6lOFVCdwIXeRXl4ELJbPQYw1gaSj9JvD2jIHrM/eD03v/3x9MT0+fOHGC0lYQttFwf3xDfIBIwBeshCDL+v/SdFrdfdWk3IKgZZTqfNlKA/CqBG6ENvOry8CFklnosQawNJR+E3h79sDVH2RsNpvKl2aYg8AlWAkBBYSA6mC0SBdftQm5VV2lKb6kGoBXJXAjtJNfXQYulMxCjzWApaH0m8DbcwGuMiy+LIUG4FUJ3AgTzK8uAxdKZqHHGsDSUPpN4O3ZnzRTxsSXZdFAhsdp2p7ISlCg1CfN+K29ZVkFsePMcGlwhBurYRsTcRtPcN+GvvKrW94IN/Fbe6HVQLDxV7u830Pzfwot0ETnUvr3XmJpKJ0m8HYGrqJDey/hVQncCFrLr25Jgdv+rb3QXSdC3sANtR+68H6CN2CX/FFH97vqunvSU37ky9vd71o8SgY/F0l+xtcr7ZGU1I5t0y2k0rZRC2rR/kQqUmQ1+aohOcSu/8XSUGom8HYGrqJDey/hVQncCFrLr24ZgdvRW3uhu04EhYGdVOmuDOmAiG4b7mXwTt8Ao4SISizaqLnIC0oqwA036H0HLtEdtKnC0uuCQh7vvPTnieugDe/3gCV9u1OHKI2loVRO4O0MXEWH9l7CqxK4EbSWX90yAreTt/aSXwf3w7Zqtd76tbuSNT54ggBT1vLAEsn13+DgPeLjlggKqCAKMEvjSPmKCfCPYBSIc8g7eeARLYErOkKDIeC675vwBkaz0WQwRPEz6aEpxL4xM1QD7XQsYGkoNRJ4OwNX0aG9l/CqBG4EreVXt4zA7eStvVFAxL12V/5VLcmhq+W+RF0ySJZX/i6PvpgHFqSsk62Q0FQSMACuTHGJiX6D5hyyUeDx3r+tyJHR6tgokImyEGmOjMVLxQaCv7URzB0zicFyuMF2V1gaSsEE3s7AVXRo7yW8KoEbQWv51S0jcDt5a2+YRy7iApZJ3sSk4HF0uVcalHHBRz/hNj1TBYXJH97SiCK6dF8jGZxQkiPxImWXi0EXoCQduWwrHLfKODkETQlXOmzZZtAtadDb3JCbD0G63048cOMbCirrJSwNpVgCb2fgKjq09xJelcCNoLX86pYRuOIQ0NyFCw/v3//mwsJ3du+OO+yusiNEQw89uhSp+qBMHPhobgiCMcB13L2EhspbivBqvek3GK4evNhdjirUF+FssKXhtSsAG20znpPa1AC4tJjcoiDj6kLE0lDqJPB2Bq6iQ3sv4VUJ3Ahay69uSYErmHv6woXH9uyJPeyOv+6hwwCOEhkAmcspD066Wu6Wgvq3fRdbCvKtluH4ljTohZK3ySDUe72vX9bDaFCv9ZdmYU7LGDeYuLtP4LUjs6AcV5BqcWXRh0j0qgCttA9aI9RUZxdYGkrxBN7OwFV0aO8lvCqBG0Fr+dUtL3D1h93J91f+F2IBd8AJuVEZPCbgsc2POpUo2KePDEkFGUl5l2TBZcBHGNHbNyDpGIZfwqVg5bYgMPca8wEcNKx5LCyuQXebAhD3B1itN1Xi0vbDE8EtQSoLCd5syXzIRDsTsTSU4gm8nU+aKTq09zLD4zQJDpK1rVLqk2b2elXqmbuETQNLEbATlCcYUYZLI5cIl9/am8CohVfBbTzBfRuDz69uqSNc6IeF7jXgBbUpmCufpOu+Z1kDS0Mm+P8m8PbsgZv+rb3ipQ/ivTvKDPkyPw3AqxK4EUaVX10GLpTMQo81gKWh9JvA2zMGbiZv7RWv2KFzk9tR7mijb+r1vgkNHlMRhfllvVSBncjwqgRuhPbzq8vAhZJZ6LEGsDSUfhN4e5bAzeStveIHc5WJ0d+3bfWmXverAvIeSaUFvmyrAXhVAjdC4/nVZeBCySz0WANYGkq/Cbw9S+Ame2uveFMv3iaJYBavb1BI2upNvUoxRTV82VYD8KoEboTG86vLwIWSWeixBrA0lH4TeHuWwE321t5m0/2tIbFv2wqaNHQVII6+qbdVXUVHfNlKA/CqBG6ENvOry8CFklnosQawNJR+E3h7lsBN+dZesXVL2Yrp0UT6Jh6azsCFupIJ8KoEboQe86vLwIWSWeixBrA0lH4TeHuWwBUPeCd+a29XwHUcR3lTLwNX8YZuL+FVCdwIfeVXl4ELJbPQYw1gaSj9JvD2jIHrM7f7t/biFZBK0CpmSBPp3i59Uy8DV/GGbi/hVQncCH3lV5eBCyWz0GMNYGko/Sbw9lxOmq2vry8tLV28eHF1dXVjY4OOUnlrL74iw1O3lK2oiGLiCTCkA9MiJbYuCrOg10CGx2naHhtLUIBPmunNx7n5aSDDpZF9hNvVtGm42lVFLpy5BnAbT3DfxmDyq8sRLpTMQo81gKWh9JvA2xm4ig7tvYRXJXAjaC2/uqUGLr+1Fx5SRgFLQxl8Am8vGLjKBPiyQA3AqxK4EYadX93yAjfLt/ZC0YmEVn9QdrIX10mZRIPKvVLVfRdbrZNuomdcRS0sDaWRBN7OwFV0aO8lvCqBG0Fr+dUtKXAzfmsvFK0VWoFVpEdzO4Fp2zJKgWq1Kh6xFyMVB0SFjK9kFMDhR1TcX3b0EEmHGm2f5rZqs16vg7bRMkgRA1O+E4KOsTSQIoQE3s7AVXRo7yW8KoEbQWv51S0jcLN/ay8UnUighKINKCyjWZA7KQPIKoXFJXIxDHqOv16v45tzx3H0wFUapN+l0zbFT6+A+7R90UWj4b5FiEJZHGTFrIWApaGkJ/D2VMCd5E9/aUD4UwI3giPmV7eMwO3krb30uR2BBoEePPIoYkMRiwlARKsIsqCMIBraQSAp0hXeiVqtqtC+RBmaApYJBxCPxouDo/TXo0R6rVYTiRiAGLaoCxzDlyhGlYc+lQaVkgCrErEiXXSBS3p7wBToMAwC7hH+9IsGJicnhZPlB800LZcRuJ28tTe67JEiojzgEsffUQCkUOIySjSBPxowIhc/YIJ2QJlGo4HeQXlRMdp7tJY4eY90AVPgDwNACiUvatG7CL0rCLw2m01aPbZNhZ6iEfzcICZCe8fE6TAYuP0COZPmwcClawxyVzcJZWV28tZeUEAIoAwGAJSILBpgogotg3CPlhQF6P9RjAaPrarQMtEBY6ggFx0Ppbm4eaAFWozKaJAmoh0IUAiUhj8LRAsKcNEshkFThEwbR65iVqR35RuiVtotBZOIwWNJpQEGLhYSFbpaVNGVub6+3u6tvVXaHeRYmApSUAyJ8kqKuERoDIiIdBSGgAKtqlDgohaGSgUR24roWKTTnQ0RXYoWBNxRF10jhd4S6ACiDaKk0mYr4IqIGxEupk//GqDDiJpV5HblG6JKqpNmk5OTqZY4VzZJA5OTk2sGf8p70mx9fV3z1l78XY8Vjt1PwQUADn9BR6vEbimgYr1eFzL9Pw0PlQLieyRRGBxEmWjvGDl+9k/sQoh0OjYxBQwMmySiRxBQ/6VZtEEAFwMQXUNjIh17I6Ij7HvQL81iGW3KSTMGrknATDsWjnApOCB3FcW0CoU6POwOxonwVpAXf4CDR9E//GkKKFOr1UTdWq1GUavwTjyDJRKjVfCoFhqhfaEpqAu7CiKFBo8ipVKp3HnnnSgvwlXl20LNY2GxDSqJtE3cMOiwcT+AbjEeSnMktjJrV77hTx+NUqHDhtIDd27B7XZhLi0suH5UA9u3b9+6deuhQ4eiWbEpDFy6BCB3uBZE+VYrE60lEGKhlqAdO6vQ6LWtBnCvUkq2MmtXviHazHgPVwDUH+7audiFTRMZuFQb2crPPPNMrVb73ve+9+KLL3bSMgNXWWbisqtF1WplxrbcYSIDt0NFtSrWPyfN4iPcbiDaTdlOoMFlAg0I4Na8z+bNm8fHx4O8OImBG7tiCwdu7Kg4sZcaaHUf7co3xIAzjnDdhUwhKmSMa+3cUW+pi2SozN9SoKleSb+2V+nouTW3/No5v31ROa5BmRYHFZvSKHBrtdoDDzzwxBNPvPbaa610wMCFQ1IBzksTISu5rVYmyrNQRg20MqtifWVqsbm9Aa6LTEFPl62BREQPqD4rvQJClqL8N66YYDFzViGpAlwR6j788MP79+9XSopLBq6yYMRl7LJBSSW31cpEeRbKqIFWZlWsr0wtNrcnwPUiWGAWAo2G/QCWDtmPe5HjXuMiKLgwRxMZu4CpAlyOcAOfCUuxCwNFusrtr5PePJtAA/AHKnTlG6KiWcCNw6Xgs/8sg2BrTDGU4oceJHEpcHkPl64TRU6wbNCCUjf+Ww1pEf63pBrAH3+wuxAU63eSWwBwKTSDaNcnph/WwjBe8sKc2HtYO3e0RTG/vGhabQON2SUI4PJTCu7O/5r3BYCyIORlhrkM3L5cY1kCdy3FJ+pePg99/ssvuDwCiixPpHsAblGfkOHktXOnxfdkItfPXDunbCusnTsaqhcT/falD7Sf1NDQ0Pbt27t6DjeFL+RetRQnzaIror2duITxGsjwEGYOEa7x6uMBxmoAt/EMIz4ZRPr/pmm5FL8WxsCNda2yJ2JppPdnBm7ZnSGz8cOr0mAxv7oM3MwszQ11qQEsDQZul5rj4q01AK/KD5ppWrYEuGTnrbWpOCedBhKfemfgplM81yYaYOAqy0lcdnWTiG4pqN9qEIXHigzcWLVkm5j4+2TFQ7ryDVGXtxSyNWWJW2PgKsspE+C6DtENRLspW2JnK3boiZ+YVDyEgVusHcvdOwNXWU65AFcAFStVPlQjkjEA/7kdmuqV9GvzYfd0S40Ct6tT7zBQAt8QVdJGuMFRDJbKr4HEbgRHBEmQQoU0uSXewxWYFBAlyAySA4lEw97Tjj6QvQJClqL8N66YeFBSwjwdnPqxtgLczk+9U2dO9nx3KuC+Oj6xfeaDwdmz/F/ZNbB9Zu7V8QnhT2mwmF/dvgKuB19gFgLdfgg9XS4M48e9yHGvcRGwgA+7t7tJKMDt/NR7oGRPSuDtqYD70q7R56eOlZ01PP7B2bPPTx19adeo8KcEbgRHzK+uncCNi1IFn/mwezusts6nwO3q1Dv8PPFKSfVOs8HBraONWQZWH2hgd2NmcHBwzeBPiU+axUaw5Ls0ugMQlPW56oe1oIeXzIfdoY8kggBuV6fes1oZqSLcxcXFV8cnhqdP9gFxbJ7C8BsnXx2fWFpaSnzfxp2fI1wFAD42fc3yYXdFPcVcJjj1Dg+nQgJvTwVcx3F27Ngxtmfftpk5m4FV6rlvm5kb27PvhRdegCclcKMe1C3xlkIxVOFeM9MAHuCBnwshwUpJC1zHcYaGh8f27HuW49wSfnk4/MbJsT37hoaGqCclcCNUz68uAzczfnBDXWrALOB6ce4LY+MTo42ZkTeOedHumVIHff0++DPbZuaenzo62pgZG5+gsW3i+zYDV2ggetKsy6XNxU3UgHHAdRxncXFxaGjopVdGx8Ynyv9Aap/PYGx84qVdo0NDQ9i3BTGTPV2I6hzhmggMHlM6DZgI3B4sOf1iLsWfnNCSEPQz0ufyfKky9brqWS5HuOnIZmhtBi5da77MAKJK6RliaKe5RselsC8D11BkphsWA1dZ5u5lKRakMu40WOT5UmWm0WSGdft8K8ri6VFng5zAczJ4SgHdCyHBINBCmroMIKgx10gzjY3S1C2Fffmwe/994UxPvdMllmyVVS7xhzXAGshIAy++sosPu/cZc5+fOvriK7sycpBLHOG6N600kVdRdUsR8aWPCNBCKeY7NDTMh937DLi7GzPKg+rwyQRrn4HLwIX/+EICN0IT+dUtBXD5sHuf0VY59Q4/F0ICb2fguqpLoDiovqi6pQAQtJTYQdFCWebLh937hrnRU+/wxsT+zMB1VVcUNNP0WxYAUR+1ZL582L0PmCtOvQ9u3UodWJET+DMDl4GreJGht59y3WB27ODD7mV8L4F66j0BUrGcYusycBm48BBfiHUUFCoqt1zAFYfdBwcH+bB7uR7eVU69Z+7tDFwGLljKwFVVUeB2U+luMCl1Zcl8GbgMXJUymd/V0UGali1ZkNAVzxeqSInyNF6XeV0GrmvWzNUKX8mvZV6QUHJJLaj3DbZvX9o31TvN1kz6lOKdVxkqjOeboTINbIrta6BR0g+JI1yOcGkkYa42OOKjdtJHx2XMtcS+DFxzEaNfNpY4KCjD84UqeAuFqqJc2mDgMnAV7zV0R5uBS+2kvxmXMdcS+zJwGbh0IZurDUsWJIzB84UqyhXDYtixtz0GrrmIiTUYzMkLEqropwWJSbF9oYp+si8D1zWrHm1m5vKC7MsFiUmxfaGKkq7QWG78/x5z5EDajorRAAAAAElFTkSuQmCC;" vertex="1" parent="1">
                    <mxGeometry x="160" y="2510" width="464" height="446" as="geometry"/>
                </mxCell>
                <mxCell id="125" value="Modelo FÃ­sico" style="text;strokeColor=none;fillColor=none;html=1;fontSize=24;fontStyle=1;verticalAlign=middle;align=center;fontColor=default;" vertex="1" parent="1">
                    <mxGeometry x="350" y="2390" width="100" height="60" as="geometry"/>
                </mxCell>
                <mxCell id="126" value="DER" style="text;strokeColor=none;fillColor=none;html=1;fontSize=24;fontStyle=1;verticalAlign=middle;align=center;fontColor=default;" vertex="1" parent="1">
                    <mxGeometry x="350" y="1210" width="100" height="40" as="geometry"/>
                </mxCell>
                <mxCell id="127" value="MER" style="text;strokeColor=none;fillColor=none;html=1;fontSize=24;fontStyle=1;verticalAlign=middle;align=center;fontColor=default;" vertex="1" parent="1">
                    <mxGeometry x="364" y="40" width="100" height="40" as="geometry"/>
                </mxCell>
                <mxCell id="128" value="&lt;span style=&quot;border-bottom: 1px dotted&quot;&gt;crm&lt;/span&gt;" style="ellipse;whiteSpace=wrap;html=1;align=center;fillStyle=auto;fillColor=none;fontStyle=1" vertex="1" parent="1">
                    <mxGeometry x="140" y="229" width="100" height="40" as="geometry"/>
                </mxCell>
                <mxCell id="129" value="nome" style="ellipse;whiteSpace=wrap;html=1;align=center;" vertex="1" parent="1">
                    <mxGeometry x="140" y="290" width="100" height="40" as="geometry"/>
                </mxCell>
                <mxCell id="130" value="" style="line;strokeWidth=2;direction=south;html=1;" vertex="1" parent="1">
                    <mxGeometry x="115" y="200" width="10" height="720" as="geometry"/>
                </mxCell>
                <mxCell id="131" value="genero" style="ellipse;whiteSpace=wrap;html=1;align=center;" vertex="1" parent="1">
                    <mxGeometry x="140" y="350" width="100" height="40" as="geometry"/>
                </mxCell>
                <mxCell id="132" value="endereco" style="ellipse;whiteSpace=wrap;html=1;align=center;" vertex="1" parent="1">
                    <mxGeometry x="140" y="530" width="100" height="40" as="geometry"/>
                </mxCell>
                <mxCell id="133" value="" style="endArrow=none;html=1;rounded=0;" edge="1" parent="1">
                    <mxGeometry width="50" height="50" relative="1" as="geometry">
                        <mxPoint x="120" y="249.76999999999998" as="sourcePoint"/>
                        <mxPoint x="140" y="249.76999999999998" as="targetPoint"/>
                    </mxGeometry>
                </mxCell>
                <mxCell id="134" value="" style="endArrow=none;html=1;rounded=0;" edge="1" parent="1">
                    <mxGeometry width="50" height="50" relative="1" as="geometry">
                        <mxPoint x="120" y="309.80999999999995" as="sourcePoint"/>
                        <mxPoint x="140" y="309.80999999999995" as="targetPoint"/>
                    </mxGeometry>
                </mxCell>
                <mxCell id="135" value="" style="endArrow=none;html=1;rounded=0;" edge="1" parent="1">
                    <mxGeometry width="50" height="50" relative="1" as="geometry">
                        <mxPoint x="120" y="369.80999999999995" as="sourcePoint"/>
                        <mxPoint x="140" y="369.80999999999995" as="targetPoint"/>
                    </mxGeometry>
                </mxCell>
                <mxCell id="136" value="" style="endArrow=none;html=1;rounded=0;" edge="1" parent="1">
                    <mxGeometry width="50" height="50" relative="1" as="geometry">
                        <mxPoint x="120" y="429.80999999999995" as="sourcePoint"/>
                        <mxPoint x="140" y="429.80999999999995" as="targetPoint"/>
                    </mxGeometry>
                </mxCell>
                <mxCell id="137" value="" style="endArrow=none;html=1;rounded=0;" edge="1" parent="1">
                    <mxGeometry width="50" height="50" relative="1" as="geometry">
                        <mxPoint x="120" y="549.81" as="sourcePoint"/>
                        <mxPoint x="140" y="549.81" as="targetPoint"/>
                    </mxGeometry>
                </mxCell>
                <mxCell id="138" value="&lt;span style=&quot;border-bottom: 1px dotted&quot;&gt;consulta_id&lt;/span&gt;" style="ellipse;whiteSpace=wrap;html=1;align=center;fontStyle=1" vertex="1" parent="1">
                    <mxGeometry x="396" y="230" width="100" height="40" as="geometry"/>
                </mxCell>
                <mxCell id="139" value="datahora" style="ellipse;whiteSpace=wrap;html=1;align=center;" vertex="1" parent="1">
                    <mxGeometry x="396" y="290" width="100" height="40" as="geometry"/>
                </mxCell>
                <mxCell id="140" value="" style="line;strokeWidth=2;direction=south;html=1;" vertex="1" parent="1">
                    <mxGeometry x="371" y="200" width="10" height="410" as="geometry"/>
                </mxCell>
                <mxCell id="141" value="diagnostico" style="ellipse;whiteSpace=wrap;html=1;align=center;" vertex="1" parent="1">
                    <mxGeometry x="396" y="350" width="100" height="40" as="geometry"/>
                </mxCell>
                <mxCell id="142" value="receita" style="ellipse;whiteSpace=wrap;html=1;align=center;" vertex="1" parent="1">
                    <mxGeometry x="396" y="410" width="100" height="40" as="geometry"/>
                </mxCell>
                <mxCell id="143" value="notas" style="ellipse;whiteSpace=wrap;html=1;align=center;" vertex="1" parent="1">
                    <mxGeometry x="396" y="470" width="100" height="40" as="geometry"/>
                </mxCell>
                <mxCell id="144" value="" style="endArrow=none;html=1;rounded=0;" edge="1" parent="1">
                    <mxGeometry width="50" height="50" relative="1" as="geometry">
                        <mxPoint x="376" y="249.76999999999998" as="sourcePoint"/>
                        <mxPoint x="396" y="249.76999999999998" as="targetPoint"/>
                    </mxGeometry>
                </mxCell>
                <mxCell id="145" value="" style="endArrow=none;html=1;rounded=0;" edge="1" parent="1">
                    <mxGeometry width="50" height="50" relative="1" as="geometry">
                        <mxPoint x="376" y="309.80999999999995" as="sourcePoint"/>
                        <mxPoint x="396" y="309.80999999999995" as="targetPoint"/>
                    </mxGeometry>
                </mxCell>
                <mxCell id="146" value="" style="endArrow=none;html=1;rounded=0;" edge="1" parent="1">
                    <mxGeometry width="50" height="50" relative="1" as="geometry">
                        <mxPoint x="376" y="369.80999999999995" as="sourcePoint"/>
                        <mxPoint x="396" y="369.80999999999995" as="targetPoint"/>
                    </mxGeometry>
                </mxCell>
                <mxCell id="147" value="" style="endArrow=none;html=1;rounded=0;" edge="1" parent="1">
                    <mxGeometry width="50" height="50" relative="1" as="geometry">
                        <mxPoint x="376" y="429.80999999999995" as="sourcePoint"/>
                        <mxPoint x="396" y="429.80999999999995" as="targetPoint"/>
                    </mxGeometry>
                </mxCell>
                <mxCell id="148" value="" style="endArrow=none;html=1;rounded=0;" edge="1" parent="1">
                    <mxGeometry width="50" height="50" relative="1" as="geometry">
                        <mxPoint x="376" y="489.80999999999995" as="sourcePoint"/>
                        <mxPoint x="396" y="489.80999999999995" as="targetPoint"/>
                    </mxGeometry>
                </mxCell>
                <mxCell id="149" value="&lt;span style=&quot;border-bottom: 1px dotted&quot;&gt;cpf&lt;/span&gt;" style="ellipse;whiteSpace=wrap;html=1;align=center;fontStyle=1" vertex="1" parent="1">
                    <mxGeometry x="660" y="230" width="100" height="40" as="geometry"/>
                </mxCell>
                <mxCell id="150" value="nome" style="ellipse;whiteSpace=wrap;html=1;align=center;" vertex="1" parent="1">
                    <mxGeometry x="660" y="290" width="100" height="40" as="geometry"/>
                </mxCell>
                <mxCell id="151" value="" style="line;strokeWidth=2;direction=south;html=1;" vertex="1" parent="1">
                    <mxGeometry x="635" y="200" width="10" height="350" as="geometry"/>
                </mxCell>
                <mxCell id="152" value="genero" style="ellipse;whiteSpace=wrap;html=1;align=center;" vertex="1" parent="1">
                    <mxGeometry x="660" y="350" width="100" height="40" as="geometry"/>
                </mxCell>
                <mxCell id="153" value="telefone_movel" style="ellipse;whiteSpace=wrap;html=1;align=center;" vertex="1" parent="1">
                    <mxGeometry x="660" y="470" width="100" height="40" as="geometry"/>
                </mxCell>
                <mxCell id="154" value="" style="endArrow=none;html=1;rounded=0;" edge="1" parent="1">
                    <mxGeometry width="50" height="50" relative="1" as="geometry">
                        <mxPoint x="640" y="249.76999999999998" as="sourcePoint"/>
                        <mxPoint x="660" y="249.76999999999998" as="targetPoint"/>
                    </mxGeometry>
                </mxCell>
                <mxCell id="155" value="" style="endArrow=none;html=1;rounded=0;" edge="1" parent="1">
                    <mxGeometry width="50" height="50" relative="1" as="geometry">
                        <mxPoint x="640" y="309.80999999999995" as="sourcePoint"/>
                        <mxPoint x="660" y="309.80999999999995" as="targetPoint"/>
                    </mxGeometry>
                </mxCell>
                <mxCell id="156" value="" style="endArrow=none;html=1;rounded=0;" edge="1" parent="1">
                    <mxGeometry width="50" height="50" relative="1" as="geometry">
                        <mxPoint x="640" y="369.80999999999995" as="sourcePoint"/>
                        <mxPoint x="660" y="369.80999999999995" as="targetPoint"/>
                    </mxGeometry>
                </mxCell>
                <mxCell id="157" value="" style="endArrow=none;html=1;rounded=0;" edge="1" parent="1">
                    <mxGeometry width="50" height="50" relative="1" as="geometry">
                        <mxPoint x="640" y="429.80999999999995" as="sourcePoint"/>
                        <mxPoint x="660" y="429.80999999999995" as="targetPoint"/>
                    </mxGeometry>
                </mxCell>
                <mxCell id="158" value="" style="endArrow=none;html=1;rounded=0;" edge="1" parent="1">
                    <mxGeometry width="50" height="50" relative="1" as="geometry">
                        <mxPoint x="640" y="489.80999999999995" as="sourcePoint"/>
                        <mxPoint x="660" y="489.80999999999995" as="targetPoint"/>
                    </mxGeometry>
                </mxCell>
                <mxCell id="159" value="especialidade" style="ellipse;whiteSpace=wrap;html=1;align=center;" vertex="1" parent="1">
                    <mxGeometry x="140" y="900" width="100" height="40" as="geometry"/>
                </mxCell>
                <mxCell id="160" value="" style="endArrow=none;html=1;rounded=0;" edge="1" parent="1">
                    <mxGeometry width="50" height="50" relative="1" as="geometry">
                        <mxPoint x="120" y="919.81" as="sourcePoint"/>
                        <mxPoint x="140" y="919.81" as="targetPoint"/>
                    </mxGeometry>
                </mxCell>
                <mxCell id="161" value="crm" style="ellipse;whiteSpace=wrap;html=1;align=center;fontColor=#FF0000;fontStyle=1" vertex="1" parent="1">
                    <mxGeometry x="396" y="530" width="100" height="40" as="geometry"/>
                </mxCell>
                <mxCell id="162" value="cpf" style="ellipse;whiteSpace=wrap;html=1;align=center;fontColor=#FF0000;fontStyle=1" vertex="1" parent="1">
                    <mxGeometry x="396" y="590" width="100" height="40" as="geometry"/>
                </mxCell>
                <mxCell id="163" value="" style="endArrow=none;html=1;rounded=0;" edge="1" parent="1">
                    <mxGeometry width="50" height="50" relative="1" as="geometry">
                        <mxPoint x="376" y="550" as="sourcePoint"/>
                        <mxPoint x="396" y="550" as="targetPoint"/>
                    </mxGeometry>
                </mxCell>
                <mxCell id="164" value="" style="endArrow=none;html=1;rounded=0;" edge="1" parent="1">
                    <mxGeometry width="50" height="50" relative="1" as="geometry">
                        <mxPoint x="376" y="610" as="sourcePoint"/>
                        <mxPoint x="396" y="610" as="targetPoint"/>
                    </mxGeometry>
                </mxCell>
                <mxCell id="165" value="rua" style="ellipse;whiteSpace=wrap;html=1;align=center;" vertex="1" parent="1">
                    <mxGeometry x="210" y="600" width="100" height="40" as="geometry"/>
                </mxCell>
                <mxCell id="166" value="" style="line;strokeWidth=2;direction=south;html=1;" vertex="1" parent="1">
                    <mxGeometry x="185" y="570" width="10" height="300" as="geometry"/>
                </mxCell>
                <mxCell id="167" value="" style="endArrow=none;html=1;rounded=0;" edge="1" parent="1">
                    <mxGeometry width="50" height="50" relative="1" as="geometry">
                        <mxPoint x="190" y="619.8599999999999" as="sourcePoint"/>
                        <mxPoint x="210" y="619.8599999999999" as="targetPoint"/>
                    </mxGeometry>
                </mxCell>
                <mxCell id="168" value="numero" style="ellipse;whiteSpace=wrap;html=1;align=center;" vertex="1" parent="1">
                    <mxGeometry x="210" y="650" width="100" height="40" as="geometry"/>
                </mxCell>
                <mxCell id="169" value="" style="endArrow=none;html=1;rounded=0;" edge="1" parent="1">
                    <mxGeometry width="50" height="50" relative="1" as="geometry">
                        <mxPoint x="190" y="669.8599999999999" as="sourcePoint"/>
                        <mxPoint x="210" y="669.8599999999999" as="targetPoint"/>
                    </mxGeometry>
                </mxCell>
                <mxCell id="170" value="bairro" style="ellipse;whiteSpace=wrap;html=1;align=center;" vertex="1" parent="1">
                    <mxGeometry x="210" y="700" width="100" height="40" as="geometry"/>
                </mxCell>
                <mxCell id="171" value="" style="endArrow=none;html=1;rounded=0;" edge="1" parent="1">
                    <mxGeometry width="50" height="50" relative="1" as="geometry">
                        <mxPoint x="190" y="719.8599999999999" as="sourcePoint"/>
                        <mxPoint x="210" y="719.8599999999999" as="targetPoint"/>
                    </mxGeometry>
                </mxCell>
                <mxCell id="172" value="cep" style="ellipse;whiteSpace=wrap;html=1;align=center;" vertex="1" parent="1">
                    <mxGeometry x="210" y="750" width="100" height="40" as="geometry"/>
                </mxCell>
                <mxCell id="173" value="" style="endArrow=none;html=1;rounded=0;" edge="1" parent="1">
                    <mxGeometry width="50" height="50" relative="1" as="geometry">
                        <mxPoint x="190" y="769.8599999999999" as="sourcePoint"/>
                        <mxPoint x="210" y="769.8599999999999" as="targetPoint"/>
                    </mxGeometry>
                </mxCell>
                <mxCell id="174" value="cidade" style="ellipse;whiteSpace=wrap;html=1;align=center;" vertex="1" parent="1">
                    <mxGeometry x="210" y="800" width="100" height="40" as="geometry"/>
                </mxCell>
                <mxCell id="175" value="" style="endArrow=none;html=1;rounded=0;" edge="1" parent="1">
                    <mxGeometry width="50" height="50" relative="1" as="geometry">
                        <mxPoint x="190" y="819.8599999999999" as="sourcePoint"/>
                        <mxPoint x="210" y="819.8599999999999" as="targetPoint"/>
                    </mxGeometry>
                </mxCell>
                <mxCell id="176" value="estado" style="ellipse;whiteSpace=wrap;html=1;align=center;" vertex="1" parent="1">
                    <mxGeometry x="210" y="850" width="100" height="40" as="geometry"/>
                </mxCell>
                <mxCell id="177" value="" style="endArrow=none;html=1;rounded=0;" edge="1" parent="1">
                    <mxGeometry width="50" height="50" relative="1" as="geometry">
                        <mxPoint x="190" y="869.8599999999999" as="sourcePoint"/>
                        <mxPoint x="210" y="869.8599999999999" as="targetPoint"/>
                    </mxGeometry>
                </mxCell>
                <mxCell id="178" value="" style="endArrow=none;html=1;rounded=0;" edge="1" parent="1">
                    <mxGeometry width="50" height="50" relative="1" as="geometry">
                        <mxPoint x="120" y="489.80999999999995" as="sourcePoint"/>
                        <mxPoint x="140" y="489.80999999999995" as="targetPoint"/>
                    </mxGeometry>
                </mxCell>
                <mxCell id="179" value="telefone_fixo" style="ellipse;whiteSpace=wrap;html=1;align=center;" vertex="1" parent="1">
                    <mxGeometry x="140" y="410" width="100" height="40" as="geometry"/>
                </mxCell>
                <mxCell id="180" value="telefone_movel" style="ellipse;whiteSpace=wrap;html=1;align=center;" vertex="1" parent="1">
                    <mxGeometry x="140" y="470" width="100" height="40" as="geometry"/>
                </mxCell>
                <mxCell id="181" value="medicos" style="whiteSpace=wrap;html=1;align=center;" vertex="1" parent="1">
                    <mxGeometry x="70" y="160" width="100" height="40" as="geometry"/>
                </mxCell>
                <mxCell id="182" value="medicos" style="whiteSpace=wrap;html=1;align=center;" vertex="1" parent="1">
                    <mxGeometry x="590" y="160" width="100" height="40" as="geometry"/>
                </mxCell>
                <mxCell id="183" value="" style="line;strokeWidth=2;html=1;" vertex="1" parent="1">
                    <mxGeometry x="170" y="175" width="140" height="10" as="geometry"/>
                </mxCell>
                <mxCell id="184" value="" style="line;strokeWidth=2;html=1;" vertex="1" parent="1">
                    <mxGeometry x="446" y="175" width="144" height="10" as="geometry"/>
                </mxCell>
                <mxCell id="185" value="N" style="text;html=1;strokeColor=none;fillColor=none;align=center;verticalAlign=middle;whiteSpace=wrap;rounded=0;" vertex="1" parent="1">
                    <mxGeometry x="160" y="150" width="60" height="30" as="geometry"/>
                </mxCell>
                <mxCell id="186" value="N" style="text;html=1;strokeColor=none;fillColor=none;align=center;verticalAlign=middle;whiteSpace=wrap;rounded=0;" vertex="1" parent="1">
                    <mxGeometry x="540" y="150" width="60" height="30" as="geometry"/>
                </mxCell>
                <mxCell id="187" value="consulta" style="shape=associativeEntity;whiteSpace=wrap;html=1;align=center;" vertex="1" parent="1">
                    <mxGeometry x="306" y="150" width="140" height="60" as="geometry"/>
                </mxCell>
                <mxCell id="188" value="nascimento" style="ellipse;whiteSpace=wrap;html=1;align=center;" vertex="1" parent="1">
                    <mxGeometry x="660" y="530" width="100" height="40" as="geometry"/>
                </mxCell>
                <mxCell id="189" value="" style="endArrow=none;html=1;rounded=0;" edge="1" parent="1">
                    <mxGeometry width="50" height="50" relative="1" as="geometry">
                        <mxPoint x="640" y="549.81" as="sourcePoint"/>
                        <mxPoint x="660" y="549.81" as="targetPoint"/>
                    </mxGeometry>
                </mxCell>
                <mxCell id="190" value="telefone_fixo" style="ellipse;whiteSpace=wrap;html=1;align=center;" vertex="1" parent="1">
                    <mxGeometry x="660" y="410" width="100" height="40" as="geometry"/>
                </mxCell>
                <mxCell id="191" value="N" style="text;html=1;strokeColor=none;fillColor=none;align=center;verticalAlign=middle;whiteSpace=wrap;rounded=0;fontColor=default;" vertex="1" parent="1">
                    <mxGeometry x="310" y="1460" width="30" height="30" as="geometry"/>
                </mxCell>
                <mxCell id="192" style="edgeStyle=none;html=1;exitX=1;exitY=0.5;exitDx=0;exitDy=0;fontColor=#FF3333;entryX=-0.002;entryY=0;entryDx=0;entryDy=0;entryPerimeter=0;" edge="1" parent="1">
                    <mxGeometry relative="1" as="geometry">
                        <mxPoint x="555" y="1484.75" as="targetPoint"/>
                        <mxPoint x="480" y="1484.75" as="sourcePoint"/>
                    </mxGeometry>
                </mxCell>
                <mxCell id="193" value="N" style="text;html=1;strokeColor=none;fillColor=none;align=center;verticalAlign=middle;whiteSpace=wrap;rounded=0;fontColor=default;" vertex="1" parent="1">
                    <mxGeometry x="478" y="1460" width="34" height="30" as="geometry"/>
                </mxCell>
                <mxCell id="194" value="1" style="text;html=1;strokeColor=none;fillColor=none;align=center;verticalAlign=middle;whiteSpace=wrap;rounded=0;fontColor=default;" vertex="1" parent="1">
                    <mxGeometry x="528" y="1460" width="30" height="30" as="geometry"/>
                </mxCell>
            </root>
        </mxGraphModel>
    </diagram>
</mxfile>